<svg xmlns="http://www.w3.org/2000/svg" viewBox="0 0 841.89 595.28"><defs><style>.cls-1{fill:#3bad5e;}.cls-2{fill:#1a3966;}.cls-3,.cls-4,.cls-5{fill:none;stroke:#193965;stroke-miterlimit:10;}.cls-3{stroke-width:4px;}.cls-4{stroke-width:2px;}</style></defs><title>bg</title><g id="Réteg_2" data-name="Réteg 2"><g id="Réteg_1" data-name="Réteg 1"><rect class="cls-1" width="841.89" height="595.28"/><polygon class="cls-2" points="142.68 179.07 124.35 158.26 106.02 179.07 106.02 0 142.68 0 142.68 179.07"/><polygon class="cls-2" points="738.68 478.05 720.35 457.24 702.02 478.05 702.02 0 738.68 0 738.68 478.05"/><polygon class="cls-2" points="550.68 338.61 532.35 317.81 514.02 338.61 514.02 0 550.68 0 550.68 338.61"/><path class="cls-2" d="M132.71,406.71h0a8.11,8.11,0,0,0-8.09,8.13V536.73a8.15,8.15,0,0,0,8.14,8.12c18.92,0,50.62,4,72.49,26.88V444.17a7.8,7.8,0,0,0-1.12-4.12C186.16,411.15,151.67,406.76,132.71,406.71Z"/><path class="cls-2" d="M298.47,536.73V414.84a8.11,8.11,0,0,0-8.09-8.13h0c-19,.05-53.45,4.44-71.4,33.34a7.79,7.79,0,0,0-1.11,4.12V571.73c21.86-22.89,53.56-26.83,72.48-26.88A8.15,8.15,0,0,0,298.47,536.73Z"/><path class="cls-2" d="M317,434.82h-5.89V536.73a20.79,20.79,0,0,1-20.73,20.74c-16.05,0-42.51,3.18-61.25,20.92,32.41-7.94,66.58-2.78,86.05,1.66a8.12,8.12,0,0,0,9.95-7.92V443A8.14,8.14,0,0,0,317,434.82Z"/><path class="cls-2" d="M112,536.73V434.82h-5.89A8.14,8.14,0,0,0,98,443V572.12a8.12,8.12,0,0,0,10,7.92c19.47-4.43,53.64-9.59,86.05-1.66-18.74-17.73-45.2-20.87-61.25-20.91A20.79,20.79,0,0,1,112,536.73Z"/><circle class="cls-3" cx="268.11" cy="146" r="9"/><circle class="cls-3" cx="187.11" cy="363" r="9"/><circle class="cls-3" cx="254.13" cy="340.98" r="4.98"/><circle class="cls-3" cx="627.11" cy="363" r="9"/><circle class="cls-3" cx="791.16" cy="545" r="9"/><circle class="cls-3" cx="417.62" cy="486.94" r="9"/><circle class="cls-3" cx="456.69" cy="247.84" r="9"/><circle class="cls-3" cx="645.11" cy="129.87" r="9"/><circle class="cls-3" cx="433.13" cy="311.98" r="4.98"/><circle class="cls-3" cx="394.13" cy="77.98" r="4.98"/><circle class="cls-3" cx="688.13" cy="499.98" r="4.98"/><circle class="cls-3" cx="577.11" cy="469.52" r="4.98"/><circle class="cls-3" cx="664.13" cy="35.98" r="4.98"/><circle class="cls-3" cx="77.13" cy="80.98" r="4.98"/><circle class="cls-3" cx="253.13" cy="268.98" r="4.98"/><circle class="cls-3" cx="193.96" cy="77.28" r="4.98"/><circle class="cls-3" cx="466.13" cy="377.98" r="4.98"/><circle class="cls-4" cx="554.13" cy="560.98" r="4.98"/><circle class="cls-4" cx="620.13" cy="259.98" r="4.98"/><circle class="cls-4" cx="370.13" cy="103.98" r="4.98"/><circle class="cls-4" cx="96.13" cy="183.98" r="4.98"/><circle class="cls-4" cx="137.13" cy="305.98" r="4.98"/><circle class="cls-4" cx="366.13" cy="295.98" r="4.98"/><circle class="cls-4" cx="768.13" cy="485.98" r="4.98"/><circle class="cls-4" cx="791.16" cy="401.74" r="4.98"/><circle class="cls-4" cx="773.13" cy="219.98" r="4.98"/><circle class="cls-4" cx="823.9" cy="35.98" r="4.98"/><circle class="cls-4" cx="495.13" cy="66.98" r="4.98"/><circle class="cls-5" cx="350.44" cy="199.28" r="3.28"/><circle class="cls-5" cx="395.44" cy="271.28" r="3.28"/><circle class="cls-5" cx="533.44" cy="393.28" r="3.28"/><circle class="cls-5" cx="637.44" cy="539.28" r="3.28"/><circle class="cls-5" cx="384.7" cy="547.29" r="3.28"/><circle class="cls-5" cx="349.44" cy="437.28" r="3.28"/><circle class="cls-5" cx="89.44" cy="409.28" r="3.28"/><circle class="cls-5" cx="47.44" cy="295.28" r="3.28"/><circle class="cls-5" cx="44.16" cy="158.28" r="3.28"/><circle class="cls-5" cx="181.44" cy="203.28" r="3.28"/><circle class="cls-5" cx="271.44" cy="53.28" r="3.28"/><circle class="cls-5" cx="613.44" cy="119.28" r="3.28"/><circle class="cls-5" cx="467.44" cy="77.28" r="3.28"/><circle class="cls-5" cx="503.44" cy="191.28" r="3.28"/><circle class="cls-5" cx="437.44" cy="153.28" r="3.28"/><circle class="cls-5" cx="661.44" cy="317.28" r="3.28"/><circle class="cls-5" cx="785.44" cy="331.28" r="3.28"/><circle class="cls-5" cx="835.44" cy="145.28" r="3.28"/><circle class="cls-5" cx="751.44" cy="91.28" r="3.28"/><circle class="cls-5" cx="287.44" cy="327.28" r="3.28"/><circle class="cls-5" cx="497.44" cy="487.28" r="3.28"/><circle class="cls-5" cx="59.27" cy="499.45" r="3.28"/></g></g></svg>