<?xml version="1.0" encoding="utf-8"?>
<!-- Generator: Adobe Illustrator 22.1.0, SVG Export Plug-In . SVG Version: 6.00 Build 0)  -->
<svg version="1.1" xmlns="http://www.w3.org/2000/svg" xmlns:xlink="http://www.w3.org/1999/xlink" x="0px" y="0px"
	 viewBox="0 0 800 800" style="enable-background:new 0 0 800 800;" xml:space="preserve">
<style type="text/css">
	.st0{fill:#C29473;}
	.st1{opacity:0.4;fill:#B07C57;}
	.st2{fill:none;stroke:#D1D3D3;stroke-width:6;stroke-linejoin:round;stroke-miterlimit:10;}
	.st3{fill:#D1D3D3;}
	.st4{fill:#6CC04A;}
	.st5{fill:#FFFFFF;}
	.st6{fill:none;stroke:#0082CA;stroke-width:1.5;stroke-miterlimit:10;}
	.st7{fill:none;stroke:#FB3449;stroke-width:1.5;stroke-miterlimit:10;}
	.st8{fill:#E07584;}
	.st9{opacity:0.4;fill:#FFFFFF;}
	.st10{fill:none;stroke:#000000;stroke-miterlimit:10;}
	.st11{font-family:'Amatic-Bold';}
	.st12{font-size:115.4999px;}
	.st13{fill:#2B83D5;}
	.st14{fill:#4DA8E3;}
	.st15{fill:#333E48;}
	.st16{fill:#7D868C;}
	.st17{fill:#D85C72;}
	.st18{fill:#F7C8A7;}
	.st19{fill:#FFBF3B;}
	.st20{fill:#FCE444;}
	.st21{opacity:0.7;}
	.st22{fill:#76C4D5;}
	.st23{fill:#9AD1DC;}
	.st24{fill:#EA8E21;}
	.st25{fill:#0082CA;}
	.st26{fill:#FF5959;}
	.st27{fill:#F7D93E;}
	.st28{font-size:62.1068px;}
</style>
<g id="Background">
	<rect class="st0" width="800" height="800"/>
	<path class="st1" d="M762.1,664.6c-3.5,0.9-7.9,0.8-12.4,0l-5.4-1.6c-29.2-8.5-56.8-16.6-87.6-17.2c-2.1,0-4.1,0-6.2,0l-0.8,0
		c-13.8-0.2-28.8-0.2-43.2,0H240.2c-2.9,0-5.7,0-8.4,0c-13.6-0.2-33.1,2.8-48.8,18.6c-0.1,0.1-0.2,0.2-0.2,0.2
		c-0.7,0.9-2.1,2.1-5.9,2.1c-2.4,0-5-0.5-7.5-0.9c-0.6-0.1-1.1-0.2-1.7-0.3c-6.5-1.5-12.7-3.2-19.2-5.1c-6.1-1.7-12.5-3.5-19.1-5.1
		c-3.6-0.9-6.6-1.7-9.5-2.4c-12.9-3.2-30-6.8-48.3-7.2H0v6l71.4,0c17.7,0.4,34.4,4,47,7.1c2.8,0.7,5.8,1.5,9.5,2.4
		c6.5,1.5,12.8,3.3,18.9,5c6.3,1.8,12.9,3.6,19.6,5.2c0.1,0,0.1,0,0.2,0c0.5,0.1,1.1,0.2,1.7,0.3c2.6,0.5,5.6,1,8.6,1
		c4.7,0,8.1-1.4,10.5-4.2c14.3-14.2,32-17,44.5-16.7c2.8,0,5.6,0,8.5,0l366.4,0c14.4-0.2,29.3-0.3,43.1,0l0.8,0c2,0,4.1,0,6.1,0
		c30,0.7,57.2,8.6,86.1,17l5.5,1.6c0.1,0,0.2,0,0.2,0.1c5.4,1.1,10.9,1.1,15.3,0c0.1,0,0.2,0,0.3-0.1c6.2-2.2,11.8-5.6,17.2-8.9
		c6.2-3.8,12.2-7.4,18.8-9.1v-6.2c-8,1.8-15,6-21.9,10.1C773,659.4,767.7,662.6,762.1,664.6z M771.1,611.4c-0.1,0-0.2,0-0.3,0
		c-36.1,4.8-74.7,4.4-114.7-1.4c-0.1,0-0.2,0-0.3,0c-3.9-0.1-7.8-0.3-11.7-0.4c-52.3-1.4-96.9-0.9-140.3,1.7H186.9
		c-3.8,0-7.6,0-11.3,0c-0.2,0-0.3,0-0.5,0c-28.9,4.6-56.8,2.7-86.4,0.7c-3.4-0.2-6.9-0.5-10.3-0.7c-0.1,0-0.1,0-0.2,0
		c-6.3,0.1-12.4,0-19.7-0.1c-4.2,0-8.3,0-12.3,0H0v6h46.3c4,0,8.1,0,12.2,0c7.2,0.1,13.4,0.2,19.7,0.1c3.4,0.2,6.8,0.4,10.2,0.7
		c28.5,1.9,58,3.9,87.5-0.8c3.7,0,7.3,0,11.1,0h316.9c0.1,0,0.1,0,0.2,0c43.3-2.6,87.8-3.2,139.9-1.7c3.8,0.1,7.6,0.2,11.5,0.4
		c22,3.2,43.6,4.8,64.7,4.8c17.6,0,34.7-1.1,51.3-3.3c2.6-0.1,5.2-0.1,7.6-0.1h21v-6h-21C776.6,611.3,773.8,611.3,771.1,611.4z
		 M655.3,539.6c-35.6,1.8-72.4,3.6-108.7,2.8l-30,0c-24,0.5-48.3,0.1-71.9-0.2c-28.1-0.4-57.1-0.9-86.2,0.1
		c-3.8,0.1-7.7,0.1-11.1,0.1H298c-21,0.1-40.8,0.1-62.1,0l-108.3,0c-0.1,0-0.3,0-0.4,0c-16.3,2.2-37.4,2.2-82.6-24.5
		c-8.3-5.1-16.1-6.3-23.1-3.7c-8.1,3-14.4,11-18.3,23.1c-0.7,1.2-1.8,2.2-3.2,3v6.6c3.8-1.4,7-3.7,8.7-7.1c0.1-0.1,0.1-0.3,0.2-0.4
		c3.2-10.2,8.5-17.2,14.7-19.5c5.2-1.9,11.2-0.9,17.9,3.2c21.6,12.8,46.7,26.1,74.8,26.1c3.8,0,7.6-0.2,11.4-0.7l108.1,0
		c21.4,0.1,41.1,0.1,62.2,0h49.3c3.4,0,7.5,0,11.3-0.1c28.9-1,57.9-0.5,85.9-0.1c23.6,0.4,48,0.7,72,0.2l29.9,0
		c36.5,0.8,73.4-1,109.1-2.8c47.5-2.3,96.3-4.7,144.4-1v-6C751.7,534.9,702.8,537.3,655.3,539.6z M745.5,507.8
		c-18.9,0.2-38.5,0.5-57.8,0.2H525.1c-10.3-0.1-20.7,0.3-30.9,0.6c-38.3,1.3-77.9,2.6-113.6-20.6c0,0-0.1,0-0.1-0.1
		c-6.9-4.1-13.6-0.7-16.9,0.9c-0.1,0-0.1,0.1-0.2,0.1c-4,2.3-7.6,5.2-11.1,8.1c-7.3,5.8-14.1,11.3-23.2,11c0,0-0.1,0-0.1,0h-7.8
		c-11.1-0.9-21.4,1.5-31.4,3.9c-5.9,1.4-12,2.9-18.4,3.6c-6.7,1-12.4,1-19.1,0c-31.7-5.7-57-8-81.8-7.5h-79c-2.3,0-4.6,0-7-0.1
		c-13.7,0.2-26.4-5.8-38.3-12c-1.1-0.6-2.1-1.1-3.2-1.7c-2-1.1-4-2.1-6-3.2c-2.6-1.6-5.3-2.9-8.1-4c-9.5-3.4-19.7-3.5-29.1-0.7v6.3
		c8.7-2.9,18.2-3.1,27,0.1c2.4,0.9,4.8,2.1,7.1,3.5c0.1,0,0.1,0.1,0.2,0.1c2,1,4,2.1,6.1,3.2c1.1,0.6,2.1,1.1,3.2,1.7
		c12.6,6.6,26.1,13,41.1,12.7c2.3,0,4.6,0,6.9,0.1l79.1,0c24.5-0.5,49.4,1.9,80.8,7.5c0,0,0.1,0,0.1,0c3.7,0.5,7.1,0.8,10.4,0.8
		c3.4,0,6.7-0.3,10.3-0.8c6.6-0.8,12.9-2.3,19-3.7c10-2.4,19.4-4.6,29.6-3.7c0.1,0,0.2,0,0.3,0h7.8c11.3,0.4,19.4-6.1,27.1-12.4
		c3.3-2.7,6.7-5.4,10.3-7.5c4.2-2.1,7.7-3.1,11-1.1c37.2,24.3,77.8,22.9,117,21.5c10.1-0.3,20.5-0.7,30.6-0.6h162.5
		c19.4,0.2,39,0,58-0.2c17.9-0.2,36.2-0.4,54.4-0.3v-6C781.7,507.3,763.4,507.5,745.5,507.8z M773.8,687.5c0,0-0.1,0-0.1,0
		c-15.3,1.5-30.5-1.1-45.2-3.6c-14.7-2.5-29.9-5.1-45.5-3.7c-2.2,0-4.4,0-6.6-0.1c-6.6-0.6-13.1-1.9-19.4-3.2
		c-10-2-20.4-4.1-31.2-3.4c-6.8,0.5-13.9,1.1-21,1.5c-3.5,0.2-7,0.5-10.5,0.7c0,0-0.1,0-0.1,0c-8.9,0.9-18.2,1.1-27.2,1.3
		c-8.3,0.2-16.9,0.3-25.2,1.1c-3.4,0.1-6.9,0.2-10.4,0.4c-32.6,1-65.7,1.4-94.1,1.7H292.5c-25.8-2-45,3.4-60.4,17.1
		c0,0-0.1,0.1-0.1,0.1c-5.8,5.8-14.5,4-23.7,2.1c-1.5-0.3-3.1-0.6-4.6-0.9c-3.1-0.7-6.2-1.5-9.3-2.3c-3.1-0.8-6.1-1.5-9.2-2.3
		c-39.5-13.7-82.6-18.1-135.4-13.8H0v6h49.8c0.1,0,0.2,0,0.2,0c52.1-4.3,94.5,0.1,133.2,13.6c0.1,0,0.2,0.1,0.3,0.1
		c3.1,0.8,6.2,1.5,9.3,2.3c3.1,0.8,6.3,1.5,9.5,2.3c0.1,0,0.1,0,0.2,0c1.5,0.3,3,0.6,4.5,0.9c4.6,0.9,9.4,1.9,14.1,1.9
		c5.4,0,10.6-1.3,14.9-5.6c14.4-12.7,31.7-17.4,56.1-15.5c0.1,0,0.2,0,0.2,0h145c28.5-0.3,61.6-0.7,94.3-1.7c3.5-0.1,7-0.2,10.5-0.4
		c0.1,0,0.1,0,0.2,0c8.1-0.8,16.6-0.9,24.8-1.1c9.1-0.2,18.4-0.4,27.6-1.3c3.5-0.2,7-0.4,10.5-0.7c7.1-0.5,14.2-1,21-1.5
		c9.9-0.6,19.5,1.3,29.6,3.3c6.5,1.3,13.2,2.6,20.1,3.3c0,0,0.1,0,0.1,0c2.4,0.1,4.7,0.1,7.1,0.1c0.1,0,0.2,0,0.3,0
		c14.9-1.3,29.8,1.2,44.1,3.7c15.1,2.6,30.6,5.2,46.7,3.7c8.2-0.4,16.2-2.1,24-3.8c0.6-0.1,1.2-0.3,1.8-0.4v-6.1c-1,0.2-2,0.4-3,0.6
		C789.4,685.4,781.6,687.1,773.8,687.5z M625.9,567.5c-17.6,0.4-35.4,2.6-52.7,4.8c-22,2.7-44.8,5.5-67,4.6c0,0-0.1,0-0.1,0
		l-378.7,0c-23.4,0.6-44.8-2.7-65.5-10.2c-11.6-3.9-21.1,0.4-30.3,4.5c-6.3,2.8-12.3,5.5-18.9,5.7c-3.4,0-6.7,0-9.9,0H0v6h2.9
		c3.2,0,6.5,0,10,0c7.8-0.2,14.7-3.2,21.3-6.2c8.5-3.8,16.6-7.4,25.8-4.3c21.4,7.8,43.5,11.2,67.6,10.6h378.6c3,0.1,6,0.2,8.9,0.2
		c19.8,0,39.6-2.5,59-4.8c17.1-2.1,34.8-4.3,52.1-4.7c35.1-1.1,70.5,1.8,104.7,4.6c22.7,1.8,45.9,3.7,69.2,4.5v-6
		c-23-0.7-46.2-2.6-68.7-4.4C696.9,569.3,661.3,566.4,625.9,567.5z M738,714.6h-23.3c-22.9-0.1-45.9-2.7-68.2-5.3
		c-27.9-3.2-56.7-6.5-85.7-4.8c-7,0.5-13.9,1.2-20.6,1.8c-7.6,0.8-15.4,1.6-23.4,2c-3.8,0.1-7.7,0.3-11.5,0.4
		c-35.1,1.3-71.3,3.8-103.2,5.9h-92.1c-19.1-1.1-37.2,0.8-56.8,6c-18.7,4.5-36.7,2.2-56.7-1.2l-3.2-0.5c-2.1-0.4-4.2-0.7-6.3-1
		c-0.1,0-0.3,0-0.4,0c-13.6-0.2-26.8-3.5-39.6-6.7c-10.9-2.8-22.2-5.6-33.8-6.6c-20.7-1.6-41.2,1.7-61,4.9
		c-17,2.8-34.5,5.6-51.8,5.2H0v6h0.4c17.7,0.4,35.6-2.5,52.8-5.3c19.5-3.2,39.6-6.4,59.6-4.9c11.1,0.9,22.2,3.7,32.8,6.4
		c13,3.3,26.5,6.7,40.8,6.9c2,0.3,4,0.7,6,1l3.2,0.5c12.3,2.1,24,3.8,35.6,3.8c7.8,0,15.6-0.8,23.5-2.7c19.1-5,36.6-6.9,55.1-5.8
		c0.1,0,0.1,0,0.2,0h92.3c0.1,0,0.1,0,0.2,0c31.9-2.1,68-4.5,103.1-5.9c3.8-0.1,7.6-0.3,11.5-0.4c8.1-0.5,16-1.2,23.7-2
		c6.6-0.7,13.4-1.4,20.3-1.8c28.5-1.7,57.1,1.6,84.7,4.8c22.4,2.6,45.6,5.3,68.9,5.3h23.3c20.6-0.1,41.4-0.1,61.9,0v-6
		C779.4,714.5,758.6,714.5,738,714.6z M633.3,1.2c1-0.4,2-0.8,3.1-1.2h-15.1c-19.3,7.1-38,4.6-57.1,0h-23.7c2.4,0.6,4.8,1.3,7.3,1.9
		C575.2,9.3,603.6,16.9,633.3,1.2z M346.3,4.9c30.3,6.7,57.5,5.1,81-4.9H408c-16.9,3.9-35.6,4-55.8,0h-24.9c3,0.7,5.9,1.5,8.8,2.3
		C339.5,3.2,342.9,4.1,346.3,4.9z M718.5,764.5c-12.5-2.1-26.5-3.2-35.5,4.7c0,0-0.1,0.1-0.1,0.1c-13,12.3-29.9,12.7-46.3,13.1
		c-6.2,0.1-12.7,0.3-18.8,1.1c-2.6,0-5.2,0-7.8,0H452.5c-4.2,0-7.6,0-11-0.2c-26-7.2-52.3-6.9-77.9-6.7c-9.3,0.1-19,0.2-28.5-0.1
		c-25.1-1.7-50.5,0.8-75,3.2c-18.7,1.9-38.1,3.8-57.1,3.8c-11,0-20.8,1.5-29.1,4.4c-2.5,0.5-5.5,1.1-8.5,1.6c-3.1,0.5-6,0.8-8.6,1
		c-12.9,0.5-25.6-1.4-39-3.4c-11.8-1.8-23.9-3.6-36.2-3.6c-3-0.5-6-0.9-9-1.3c-22.2-2.8-46.1-2.8-72.7,0.1v6c26.3-2.9,50-3,71.9-0.2
		c3,0.4,6,0.8,9,1.3c0.2,0,0.3,0,0.5,0c11.9,0,23.9,1.8,35.6,3.5c11.7,1.7,23.7,3.5,35.7,3.5c1.5,0,3,0,4.5-0.1
		c2.9-0.2,5.9-0.5,9.2-1c3.2-0.5,6.4-1.2,9-1.7c0.1,0,0.3-0.1,0.4-0.1c7.7-2.7,16.8-4.1,27.2-4.1c19.3,0,38.8-1.9,57.7-3.8
		c24.3-2.4,49.5-4.9,74.1-3.2c0,0,0.1,0,0.1,0c9.7,0.3,19.4,0.2,28.8,0.1c26.4-0.3,51.3-0.5,76.5,6.5c0.2,0.1,0.4,0.1,0.6,0.1
		c3.7,0.3,7.4,0.3,11.8,0.3H610c2.7,0,5.4,0,8.1,0c0.1,0,0.2,0,0.4,0c5.8-0.8,11.9-0.9,18.3-1.1c17.5-0.4,35.6-0.8,50.3-14.7
		c7.1-6.2,19.4-5.1,30.4-3.3c11.6,2.1,23.2,5.2,34.4,8.1c15.7,4.1,31.8,8.3,48.1,10v-6c-15.5-1.6-30.7-5.6-46.6-9.8
		C742.1,769.8,730.4,766.7,718.5,764.5z M686.8,473.6c-47.2-0.1-93.9-0.1-142.5,0h-30.1c-7.1,0-14.4,0.1-21.4,0.1
		c-42.6,0.5-82.8,0.9-121.5-16c-0.1,0-0.2-0.1-0.2-0.1c-3.5-1.2-8.1-1.2-12.7-0.1c0,0-0.1,0-0.1,0c-6.4,1.9-12.1,4.9-17.7,7.8
		c-9.6,5.1-18.7,9.9-29.8,8.1c-0.2,0-0.3,0-0.5,0c-2.5,0-5.2,0-7.8,0.2c-0.2,0-0.3,0-0.5,0c-11.5,0-21.2,6.1-30.6,12
		c-2.2,1.4-4.6,2.9-6.9,4.2c-0.1,0-0.1,0.1-0.2,0.1c-2.3,1.6-5.6,2.5-9.1,2.5c-12.4-1.9-24.9-3.9-37-5.9c-46-7.6-93.6-15.4-141.8-13
		H65c-1.2,0-2.5,0-3.7-0.1l-2.8,0c-0.2,0-0.3,0-0.5,0c-2.7,0.4-5.4,0.5-7.9,0.2c-2.4-0.5-4.8-1.1-7.4-2.1
		c-11.3-5.8-23.7-11.1-37.6-11.1c-1.7-0.1-3.4-0.2-5.1-0.1v6c1.6-0.1,3.1,0,4.7,0.1c0.1,0,0.2,0,0.3,0c12.7,0,24.4,5.1,35.2,10.5
		c0.1,0.1,0.2,0.1,0.3,0.1c3,1.1,5.8,1.9,8.6,2.4c0.1,0,0.1,0,0.2,0c3,0.4,6.2,0.3,9.4-0.2l2.6,0c1.2,0,2.4,0,3.7,0.1h11.6
		c0.1,0,0.1,0,0.2,0c47.6-2.4,92.7,5,140.6,12.9c12.2,2,24.8,4.1,37.3,6c0.1,0,0.3,0,0.4,0c4.7,0,9.2-1.2,12.6-3.5
		c2.4-1.4,4.7-2.8,7-4.3c9.2-5.8,17.9-11.2,27.9-11.1c0.1,0,0.2,0,0.2,0c2.4-0.1,4.9-0.2,7.3-0.2c12.9,1.9,23.3-3.5,33.3-8.8
		c5.3-2.8,10.8-5.7,16.5-7.4c3.3-0.8,6.7-0.9,9.1-0.1c39.9,17.3,82.6,16.8,123.9,16.4c7-0.1,14.2-0.1,21.3-0.1h30.2
		c48.6-0.1,95.2-0.1,142.5,0c2.3,0,4.5,0,6.7,0H800v-6H693.5C691.3,473.6,689,473.6,686.8,473.6z M134.9,13.4
		c1.9,0.1,3.7,0.2,5.5,0.2c1.6,0,3.2-0.1,4.8-0.2c0.4,0,0.9-0.2,1.3-0.4C157,7.1,167.5,2.8,178,0h-18.4c-5.1,2.2-10.3,4.6-15.4,7.5
		c-2.8,0.2-5.6,0.1-8.8-0.1c-11.4-0.8-23-4.1-34.3-7.4H78.6c6.4,1.5,12.7,3.4,19,5.2C109.7,8.8,122.2,12.5,134.9,13.4z M718.8,743.3
		c-34.5-4.5-70.1-9.1-106.2-3.8c-5,0.7-9.9,1.4-14.9,2c-25.1,3.5-48.8,6.8-73.4,6.3l-11.1-0.4c-16.6-0.6-35.9-1.1-55.2-1
		c-3.7,0-7.4,0.1-11,0.1c-22.5-0.1-45.1,0.7-66.9,1.4c-28.7,0.9-58.4,1.9-87.7,1.1c0,0-0.1,0-0.1,0c-3.6,0.1-7.2,0.1-10.7,0.1
		c-24.7,0.3-49.9,0.2-75.1-0.1c-2.8,0-5.5,0-8.3,0l-38.6,0c-3.7-0.1-7.4-0.1-11.3,0c-2.4,0-4.8,0-7.2,0c-5.2,0-12-0.2-18.5-1.1
		c-6.6-0.9-12.2-2.4-17-4.7c-5.6-2.6-10.3-6.1-14.3-10.8c-0.1-0.1-0.3-0.3-0.4-0.4c-4.7-3.7-9.9-3.3-14.6-2.9
		c-1.5,0.1-2.9,0.2-4.3,0.2c-0.1,0-0.2,0-0.3,0c-14.5,1.4-28.5,5.6-42,9.7c-10.1,3.1-19.8,6-29.7,7.9v6.1
		c10.8-1.9,21.2-5.1,31.4-8.2c13.2-4,26.8-8.1,40.7-9.5c1.6,0,3.1-0.1,4.6-0.3c4.6-0.4,7.5-0.5,10.1,1.5c4.5,5.2,9.8,9.1,16.1,12.1
		c5.4,2.5,11.6,4.2,18.7,5.2c6.9,0.9,13.9,1.1,19.3,1.1c2.4,0,4.8,0,7.2,0c3.9,0,7.5,0,11.2,0h38.7c2.7,0,5.5,0,8.2,0
		c14.1,0.2,28.2,0.3,42.3,0.3c11.1,0,22.1-0.1,33-0.2c3.5,0,7.1-0.1,10.7-0.1c29.5,0.8,59.2-0.1,88-1.1c21.3-0.7,43.3-1.4,65.2-1.4
		c0.5,0,1,0,1.5,0c3.6-0.1,7.3-0.1,10.9-0.1c19.1-0.1,38.4,0.5,55,1l11.1,0.4c25,0.5,49-2.8,74.4-6.4c4.9-0.7,9.9-1.4,14.9-2
		c35.4-5.1,70.6-0.6,104.6,3.8c18.4,2.4,37.5,4.9,56.4,5.8c0,0,0.1,0,0.1,0H800v-6h-25.3C756.1,748.2,737.1,745.7,718.8,743.3z
		 M740.8,126.3c-13.5-2.1-27.5-4.4-42.3-1.8c-3.5,0.6-6.9,1.3-10.2,2.1c-8.2,1.8-16,3.5-24.3,2.6c-0.1,0-0.2,0-0.3,0
		c-3-0.1-6.2-0.2-9.9-0.4c-14.6-0.8-27.8-2.2-40.4-4.3c-12.4-1.8-24.5,0.2-36.1,2c-8.5,1.4-17.3,2.8-26,2.6h-67.8
		c-4,0-7.9,0-11.8-0.1c-4-0.3-8-0.4-11.9-0.6c-15.2-0.5-29.5-1-40.7-12.1c-3.2-3.2-7.5-2.6-10.9-2.2c-1.2,0.2-2.2,0.3-3.3,0.3
		c-14.3,0.5-28.3,4.1-41.7,7.5c-16,4.1-32.5,8.4-49.2,7.2c-0.1,0-0.1,0-0.2,0H201.3c-23.8-2-46.2,5-67.8,11.8
		c-7.2,2.3-14.7,4.6-22.2,6.6c-5.1,1-10.3,0.7-14.2-0.9c-5.1-2-10.1-4.6-14.9-7.2c-12.1-6.4-24.7-13-40.4-10.4H0v6h42
		c0.2,0,0.3,0,0.5,0c13.9-2.4,25,3.5,36.9,9.7c5,2.6,10.1,5.3,15.5,7.4c3.1,1.2,6.7,1.9,10.6,1.9c2.3,0,4.7-0.2,7.1-0.7
		c0.1,0,0.1,0,0.2,0c7.6-2,15.2-4.4,22.5-6.7c22.1-6.9,42.9-13.5,65.6-11.5c0.1,0,0.2,0,0.3,0h112.4c17.6,1.3,34.6-3.1,51.1-7.3
		c13.2-3.4,26.8-6.9,40.3-7.3c1.3,0,2.7-0.2,4-0.3c3-0.4,4.9-0.6,5.9,0.5c12.8,12.8,29,13.4,44.7,13.9c3.8,0.1,7.8,0.3,11.7,0.6
		c0.1,0,0.1,0,0.2,0c4,0.1,8,0.1,12,0.1l67.8,0c9.2,0.1,18.2-1.3,27-2.7c11.7-1.9,22.8-3.7,34.3-2c12.8,2.1,26.2,3.6,41,4.3
		c3.7,0.2,6.9,0.3,10,0.4c9.2,1,17.8-0.9,26.1-2.7c3.2-0.7,6.6-1.4,9.9-2c13.8-2.4,26.7-0.4,40.3,1.8c8.3,1.3,16.8,2.7,25.6,2.9H800
		v-6l-34.5,0C757.2,128.9,748.9,127.6,740.8,126.3z M696.9,443.4c-9.1,1.6-18.6,3.3-28.1,4.1c-21.6,0.9-43.3-1.8-64.2-4.4
		c-23.3-2.9-47.5-5.9-72-4H410.2c-25.3-3.3-50.4-2.2-74.8-1.1c-9.6,0.4-19.5,0.9-29.3,1.1h-33.9c-2.1,0-5,0-7.7,0.1
		c-12.6-0.4-25.1,2.2-37.2,4.7c-9.9,2-20.2,4.2-30.4,4.6c0,0-0.1,0-0.1,0c-47.4,4-93.4,6.6-135-5.5c-2.5-0.7-5.1-1.5-7.6-2.3l-3.1-1
		c-0.2-0.1-0.3-0.1-0.5-0.1c-2.6-0.3-5.3-0.8-8.2-1.4c-1.6-0.3-3.2-0.7-4.8-1.1c-1.1-0.2-2.2-0.5-3.2-0.7
		c-10.5-2.8-21.8-3.8-34.2-3.2v6c12-0.6,22.8,0.4,32.8,3c0,0,0.1,0,0.1,0c1.1,0.2,2.2,0.5,3.3,0.7c1.6,0.4,3.3,0.7,4.9,1.1
		c3,0.6,5.7,1.1,8.4,1.4l2.8,0.9c2.6,0.8,5.1,1.6,7.7,2.3c23.4,6.8,48,9.1,73.4,9.1c20.8,0,42.2-1.5,63.8-3.4
		c10.7-0.5,21.2-2.6,31.3-4.7c12.3-2.5,24-4.9,35.9-4.6c0.1,0,0.1,0,0.2,0c2.7-0.1,5.5-0.1,7.6-0.1l33.9,0
		c9.9-0.2,19.9-0.6,29.5-1.1c24.1-1.1,49.1-2.2,73.9,1c0.1,0,0.3,0,0.4,0h122.7c0.1,0,0.2,0,0.2,0c24-1.9,47.8,1.1,70.9,4
		c21.2,2.6,43.1,5.4,65.3,4.4c0,0,0.1,0,0.1,0c9.8-0.8,19.4-2.5,28.7-4.2c14.9-2.7,29-5.2,44.1-4.2c0.1,0,0.1,0,0.2,0H800v-6h-57.6
		C726.6,438.1,711.5,440.8,696.9,443.4z M756.7,198c-22.6-1.5-46.7-1.5-69.8,0c-1.9,0-3.8,0-5.7,0c-0.3,0-0.6,0-0.9,0
		c-11.3,0.4-23.2,0.4-34.3,0c0,0-0.1,0-0.1,0l-422.7,0c-4.9,0.1-9.7,0.2-14.5,0.3c-17.2,0.4-33.4,0.9-50.4,0l-1.5-0.1
		c-2.1-0.1-4.2-0.1-6.2-0.3c-0.1,0-0.2,0-0.2,0l-39.1,0c-15.1,0.4-29.5,0.4-44,0.2c-2.9,0-5.8-0.1-8.8-0.2c-1.7,0-3.4,0-5.1,0.1
		c-4.6,0.1-9.3,0.3-13.1-1c-13.6-5-27-6.6-40-6.2v6c12.5-0.3,25,1.2,38.1,5.9c5,1.7,10.2,1.5,15.3,1.3c1.7-0.1,3.3-0.1,4.8-0.1
		c3,0.1,5.9,0.1,8.8,0.2c14.6,0.2,29.1,0.2,44.2-0.2h39c2.1,0.2,4.3,0.2,6.3,0.3l1.4,0.1c7.2,0.4,14.3,0.5,21.4,0.5
		c9.7,0,19.4-0.2,29.4-0.5c4.8-0.1,9.6-0.2,14.5-0.3h422.6c11.2,0.4,23.2,0.4,34.7,0c2.2,0,4.4,0,6.6,0c0.1,0,0.1,0,0.2,0
		c22.9-1.5,46.8-1.5,69.1,0c0.1,0,0.1,0,0.2,0c2.6,0,5.2,0,7.7,0H800v-6h-35.7C761.8,198.1,759.2,198.1,756.7,198z M743.3,158.7
		c-21.3-4.8-43.4-9.7-65.8,3.2c-3.8,1.9-8,2.4-11.5,1.5c-0.2-0.1-0.5-0.1-0.7-0.1c-3.3,0-6.6-0.1-9.8-0.1l-0.9,0
		c-27.5-0.4-56.8-0.6-86.3,0.5H415.7c-4.7,0-8.4-0.1-11.7-0.3c-16.7-2.6-33.3-1.6-49.4-0.7c-8,0.5-16.3,0.9-24.5,1H150.3
		c-0.2,0-0.4,0-0.6,0.1c-31.5,6.7-63.6,3.9-94.7,1.3l-4.8-0.4c-3.7-0.3-7.5-0.6-11.2-0.9c-0.1,0-0.1,0-0.2,0
		c-13-0.3-25.9-0.5-38.9-0.5v6c12.9,0,25.7,0.1,38.6,0.5c3.7,0.3,7.4,0.6,11.1,0.9l4.8,0.4c16.9,1.4,34,2.9,51.3,2.9
		c14.9,0,29.9-1.1,44.8-4.2h179.5c8.4,0,16.7-0.5,24.8-1c16.5-0.9,32.2-1.8,48.3,0.7c0.1,0,0.2,0,0.3,0c3.5,0.2,7.3,0.3,12.2,0.3
		h152.7c0,0,0.1,0,0.1,0c29.4-1.1,58.6-0.8,86.1-0.5l0.9,0c3.2,0,6.4,0.1,9.5,0.1c4.8,1.2,10.4,0.4,15.4-2.1c0.1,0,0.1-0.1,0.2-0.1
		c20.3-11.8,40.3-7.3,61.5-2.6c9.7,2.2,19.7,4.4,29.9,5.1c0.1,0,0.1,0,0.2,0H800v-6h-27.7C762.5,163,752.8,160.8,743.3,158.7z
		 M684.9,64.2c-5.6,1.3-11.4,2.6-17.3,3.4c-11,1.2-21.6-1.1-32.8-3.5c-6.3-1.4-12.9-2.8-19.5-3.5c-0.1,0-0.1,0-0.2,0
		c-10.8-0.6-22.1-0.5-33-0.3c-6.3,0.1-12.8,0.2-19,0.1c-3.6-0.8-7.4-1.5-11.1-2.1c-37.9-6.2-76.8-3.5-114.4-0.8
		c-4.7,0.3-9.4,0.7-14.1,1l-1.6,0.1c-3.1,0.2-6.1,0.4-9.1,0.6c-0.1,0-0.3,0-0.4,0.1c-22.5,5-45.5,3.6-67.8,2.3
		c-8-0.5-16.3-1-24.5-1.2c0,0-0.1,0-0.1,0c-3.4,0.1-6.9,0.1-10.3,0.1h-61.1l-1.9,0c-2.1,0-4.2,0-6.4,0c-18.2-3.4-35.5,0.7-52.3,4.6
		c-7,1.7-14.3,3.4-21.6,4.6c0,0-0.1,0-0.1,0c-2.5,0.5-5.2,0.1-8-0.4c-1.9-0.3-3.9-0.6-5.8-0.7c-3-0.6-6.2-1.5-9.5-2.6
		c-3.3-1.1-6.6-2.5-9.8-4c-4.9-2.5-10.3-2.1-15-1.7c-1.9,0.1-3.7,0.3-5.5,0.2H0v6l112.8,0c2,0.1,4.1-0.1,6.1-0.2
		c4.3-0.3,8.4-0.6,11.9,1.1c3.4,1.7,6.9,3.1,10.4,4.3c3.6,1.2,7.1,2.2,10.5,2.9c0.2,0,0.4,0.1,0.6,0.1c1.6,0,3.4,0.3,5.2,0.6
		c2,0.3,4.3,0.7,6.6,0.7c1.2,0,2.3-0.1,3.5-0.3c7.5-1.2,14.9-2.9,22-4.6c17-4,33-7.8,50.1-4.5c0.2,0,0.4,0.1,0.6,0.1
		c2.2,0,4.4,0,6.6,0l63,0c3.4,0,6.9,0,10.3-0.1c8,0.2,16.2,0.7,24.2,1.2c22.6,1.4,46,2.8,69.2-2.3c2.9-0.2,5.9-0.4,8.9-0.6l1.6-0.1
		c4.7-0.3,9.4-0.6,14.2-1c37.3-2.6,75.8-5.3,113,0.8c3.7,0.6,7.5,1.3,11.1,2.1c0.2,0,0.4,0.1,0.6,0.1c6.4,0.1,13.1,0,19.5-0.1
		c10.8-0.2,21.9-0.3,32.5,0.3c6.3,0.7,12.7,2.1,18.8,3.4c11.2,2.4,22.8,4.9,34.8,3.6c6.2-0.8,12.2-2.2,17.9-3.5
		c9.3-2.1,18.1-4.2,27.6-3.7c0.1,0,0.1,0,0.2,0h86v-6h-85.9C703.8,59.8,694.2,62,684.9,64.2z M713.7,25.9c-2.6,0-5.1,0-7.7,0
		c-0.3,0-0.5,0-0.8,0c-10.8,0-19.8,4.6-28.5,9.1c-6.9,3.6-14.1,7.3-22.1,8.5c-10.4,1.3-20.4-1.4-30.9-4.3c-4.9-1.3-10-2.7-15.1-3.7
		c-0.1,0-0.1,0-0.2,0c-4.6-0.5-8.9-0.8-13.2-1c-4.1-0.2-8.4-0.5-12.8-1c-5.2-0.9-10.4-1.8-15.4-2.8c-18.5-3.5-36.1-6.8-55.2-5.1
		c-3,0-5.9,0-8.9,0c-9,0-18.1,0.1-27.2,0.3l-22.5,0c-3.6,0-7.2-0.1-10.7-0.3c-8.5-0.4-16.5-0.7-25.3,1.5c-32,7.2-61,6.6-88.5-2
		c-3.6-1-7.4-1.4-11.6-1.2c-4,0.2-8.1,1-11.2,1.7c-3.3,0.2-6.8,0.2-10.1,0.2h-53.1c0,0-0.1,0-0.1,0c-10.6,0.4-21.1-2-32.3-4.7
		c-3.9-0.9-7.9-1.9-11.9-2.7c-3.7-0.9-6.7,0.2-9.4,1.1c-0.9,0.3-1.9,0.7-2.9,0.9c-7.8,1.3-14.2,5.8-20.3,10.1
		c-8.9,6.2-16.6,11.6-27.4,7.6c-0.1,0-0.2-0.1-0.3-0.1c-3.5-0.8-6.9-1.7-10.1-2.6l-2.5-0.6c-19.7-5.2-38.4-10.1-59.2-9.1H0v6h66.6
		c0,0,0.1,0,0.1,0c20-1,38.2,3.8,57.5,8.9l2.5,0.7c3.2,0.8,6.6,1.7,10.1,2.6c13.6,4.9,23.3-1.9,32.7-8.4c5.9-4.1,11.5-8,18-9.1
		c0.1,0,0.2,0,0.2,0c1.3-0.3,2.4-0.7,3.5-1.1c2.4-0.8,4.1-1.4,6-0.9c0,0,0.1,0,0.1,0c3.9,0.8,7.9,1.7,11.7,2.6
		c11,2.6,22.4,5.3,33.8,4.8h53c3.5,0,7.1,0,10.7-0.2c0.2,0,0.3,0,0.5-0.1c2.9-0.7,6.7-1.4,10.4-1.6c3.5-0.2,6.6,0.1,9.5,0.9
		c28.5,8.9,58.5,9.5,91.6,2c8-2,15.6-1.7,23.6-1.3c3.6,0.2,7.2,0.3,11,0.3l22.5,0c9.1-0.1,18.2-0.2,27.1-0.3c2.9,0,5.8,0,8.7,0
		c0.2,0,0.4,0,0.6,0c18.3-1.6,35.5,1.6,53.7,5.1c5.1,1,10.3,1.9,15.6,2.8c0.1,0,0.1,0,0.2,0c4.6,0.5,8.9,0.8,13.2,1
		c4.1,0.2,8.3,0.5,12.7,1c4.9,0.9,9.8,2.3,14.6,3.6c8.8,2.4,17.8,4.8,27.1,4.8c2.1,0,4.1-0.1,6.2-0.4c9-1.4,16.6-5.3,24-9.1
		c8.6-4.4,16.8-8.7,26.5-8.4c0,0,0.1,0,0.1,0c2.6,0,5.1,0,7.6,0H800v-6H713.7z M732.9,94.7c-2.8,0-5.7,0-8.5,0
		c-10.8-0.1-22.3-0.2-32.4-0.2l-4.5,0l-8.5,0c-13.8,0-32,0-51.1-0.3c-3.8,0-7.6,0-11.4,0c-20.8,0-39.3,0.2-56.6,0.6l-8.6,0
		c-15.1,0.4-29.6-3-43.6-6.2c-10.8-2.5-21.9-5.1-33.3-6c-24.1-2.6-47.3-0.1-68.7,3c-3.7,0.5-7.5,1.1-11.2,1.7l-4.1,0.7
		c-9.9,1.6-20.1,3.3-29.5,4.5c-4,0.5-7.6,1-11.2,1.4c-3.8,0.4-7.6,0.7-11.1,1h-93.4c-2.6,0-5.3,0-7.9,0c-20.4-0.6-39.6,6-58.1,12.4
		c-19.2,6.6-37.3,12.8-56,11.4c-5.5-0.4-10.3-5-15.4-10c-7.3-7.1-15.7-15.1-28.6-13.7c-4.1-0.1-8.1-0.1-12-0.1H0v6h67.2
		c3.9,0,8,0,12.1,0.1c0.1,0,0.3,0,0.4,0c10.2-1.2,16.9,5.3,23.9,12.1c5.7,5.5,11.5,11.1,19.2,11.6c2,0.2,4,0.2,5.9,0.2
		c17.9,0,35.4-6,52.4-11.9c18.1-6.2,36.8-12.7,56-12.1c0,0,0.1,0,0.1,0c2.6,0,5.3,0,7.9,0h93.5c0.1,0,0.1,0,0.2,0
		c3.6-0.3,7.5-0.6,11.4-1c3.6-0.4,7.3-0.8,11.3-1.4c9.5-1.2,19.7-2.9,29.6-4.5l4.1-0.7c3.7-0.6,7.4-1.2,11.2-1.7
		c21-3.1,43.7-5.6,67.3-3c11,0.8,21.4,3.3,32.4,5.9c14.4,3.4,29.2,6.8,45.1,6.4l8.6,0c17.3-0.4,35.8-0.6,56.6-0.6
		c3.8,0,7.6,0,11.4,0c19.1,0.3,37.4,0.3,51.1,0.3l8.5,0l4.5,0c10.1,0,21.6,0,32.4,0.2c2.8,0,5.7,0,8.5,0c2.8,0,5.7,0,8.5,0H800v-6
		h-58.6C738.6,94.7,735.7,94.7,732.9,94.7z M702.1,396.7c-1.7,0.6-4.6,0.1-5.8-0.3c-7.3-13.5-19.7-30.4-43.7-26.1
		c-2.9,0-5.8,0-8.8,0h-66.3c-2.6,0-5.1,0-7.7,0c-0.2,0-0.4,0-0.6,0c-9.2,1.6-16.1-3.1-23.3-8.2c-6.1-4.2-12.3-8.6-19.9-8.6
		c-16.5-0.5-32.6,4.1-48.2,8.5c-17.2,4.9-35,9.9-53.5,8.3c-0.1,0-0.2,0-0.3,0H292.3c-5.9,0-11.7,0-17.6,0c-22.6,0.2-45.6,0.2-68.2,0
		c-5.6,0-11,0-16.5,0l-86,0c-3.5,0-7.4,0.1-11.1,0.2c-0.1,0-0.1,0-0.2,0c-15.8,1.4-31.6,0.9-46.8,0.3c-6.7-0.2-13.6-0.5-20.6-0.5
		c-2.6,0-5.1,0.1-7.6,0.1c-6,0.1-11.9,0.1-17.8,0.1v6c5.9,0,11.8,0,17.8-0.1c2.5,0,5-0.1,7.5-0.1c6.8,0.1,13.7,0.3,20.4,0.5
		c15.4,0.5,31.3,1.1,47.5-0.3c3.6-0.1,7.5-0.2,10.9-0.2h86c5.4,0,10.9,0,16.4,0c22.7,0.2,45.7,0.2,68.3,0c5.8,0,11.7,0,17.5,0H424
		c19.5,1.7,37.8-3.5,55.5-8.5c15.9-4.5,30.9-8.7,46.5-8.3c5.7,0,11,3.6,16.5,7.5c7.5,5.2,16,11.1,27.5,9.2c2.5,0,5,0,7.5,0h66.3
		c3,0,6,0,9,0c0.2,0,0.4,0,0.6-0.1c16-3,27.7,4.3,38,23.7c0.1,0.3,0.3,0.5,0.5,0.7c1.4,1.4,4.8,2.3,8,2.3c1.5,0,2.9-0.2,4.1-0.6
		c7-2.5,14-5.2,20.8-7.9c25.1-9.7,49.2-19,75.2-19.6v-6c-27,0.5-51.6,10.1-77.4,20C715.9,391.5,708.9,394.2,702.1,396.7z
		 M729.8,341.5c-7.7,0.6-15.1-1.1-22.9-2.8c-4.8-1.1-9.7-2.2-14.8-2.8c-0.1,0-0.1,0-0.2,0c-2.9-0.1-5.8-0.1-8.7-0.1h-81
		c-0.1,0-0.2,0-0.2,0c-10.7,0.8-16.8-1.2-20.3-6.8c-1.1-2.3-1.9-5-2.7-7.7c-1.9-6.5-4.1-13.9-11.5-14.8c0,0-0.1,0-0.2,0
		c-17.7-1.3-33.4,6-48.6,13.2c-8.8,4.1-17.9,8.4-27.3,10.9c-12.1,3-23.5,5.9-36.4,5c-0.1,0-0.2,0-0.3,0c-2,0.1-3.9,0.1-5.8,0.1
		l-2.9,0.1H292.4c-11.5-0.9-22.5,1.4-33.1,3.6c-5.8,1.2-11.7,2.4-17.7,3.1c-0.1,0-0.1,0-0.2,0c-12.8,2.4-24.7-0.2-37.4-2.9
		c-7.1-1.5-14.4-3.1-21.9-3.7c-0.1,0-0.1,0-0.2,0c-2.9-0.1-5.7-0.1-8.1-0.1H0v6h173.9c2.4,0,5.2,0,7.9,0.1c7,0.6,14.1,2.1,21,3.6
		c9.1,2,18.4,4,28.1,4c3.8,0,7.6-0.3,11.5-1c6.2-0.7,12.2-2,18.1-3.2c10.7-2.2,20.8-4.3,31.6-3.5c0.1,0,0.2,0,0.2,0l153.6,0l2.9-0.1
		c1.9,0,3.8-0.1,5.7-0.1c13.8,0.9,26.2-2.2,38.2-5.2c9.9-2.7,19.3-7.1,28.4-11.3c15.1-7.1,29.4-13.8,45.5-12.6
		c3.2,0.5,4.6,4.3,6.5,10.6c0.9,3,1.8,6,3.2,8.8c0,0.1,0.1,0.2,0.1,0.2c6.2,9.9,17.7,10.3,25.8,9.7h80.9c2.9,0,5.6,0,8.3,0.1
		c4.8,0.6,9.5,1.6,14.1,2.6c7.9,1.8,16.1,3.6,24.6,2.9c9.9-0.7,19.8-1.8,29.3-2.8c13.2-1.5,26.8-3,40.5-3.3v-6
		c-14,0.3-27.7,1.9-41.2,3.3C749.4,339.8,739.5,340.9,729.8,341.5z M761.9,404.5c-14.8,0.4-30,5.4-44.7,10.3
		c-28.9,9.6-56.3,18.7-83.3-2.7c-16.5-12.9-38.6-10.8-60-8.8c-10.1,0.9-20.5,1.9-30.2,1.3c-0.1,0-0.1,0-0.2,0H534
		c-2.9,0-5.7,0-8.6,0c-24-1.1-47.3-1.2-71.2-0.1l-2.4,0c-2.2,0-4.4,0-6.6,0.1H190.6c-3.9,0-7.8,0-11.7,0c0,0-0.1,0-0.1,0
		c-4.4,0.2-9,0.1-13.8,0c-13.2-0.4-26.8-0.8-38.6,6.3c-11.8,7.1-26.4,13.1-64.7,1.2c-2.8-0.9-5.6-1.8-8.4-2.7l-1.2-0.4
		c0,0-0.1,0-0.1,0c-9.2-2.6-18.7-4.6-28.2-5.9c-3.2-0.4-6.4-0.8-9.6-1.1c-4.7-0.4-9.5-0.7-14.2-0.7v6c4.5,0.1,9.1,0.3,13.6,0.7
		c3.1,0.3,6.3,0.7,9.4,1.1c9.2,1.3,18.5,3.2,27.4,5.7l1.1,0.4c2.8,0.9,5.6,1.8,8.4,2.7c22.3,6.9,46,12.5,69.6-1.8
		c10.2-6.1,23-5.8,35.3-5.4c4.7,0.1,9.5,0.3,14.2,0c3.8,0,7.7,0,11.6,0h254.6c2.2,0,4.4-0.1,6.6-0.1l2.5,0c0,0,0.1,0,0.1,0
		c23.8-1.1,46.9-1.1,70.7,0.1c0,0,0.1,0,0.1,0c2.9,0,5.8,0,8.7,0h9.3c10.1,0.6,20.8-0.4,31.1-1.4c21.2-2,41.2-3.9,55.8,7.5
		c13.4,10.6,27,14.4,40.5,14.4c16.3,0,32.5-5.4,48.4-10.7c15-5,29.1-9.7,42.9-10c7.8,0,16,0,24.5,0.2H800v-6h-13.5
		C778,404.5,769.9,404.5,761.9,404.5z M749,266.9h-35.2c-2,0-4.1,0-6.1,0c-2.9-0.2-5.8-0.3-8.7-0.5c-19.5-1.1-39.7-2.2-56.6-10.6
		c-0.1,0-0.2-0.1-0.2-0.1c-8.1-3.2-16.1-2.8-23.8-2.5c-2.4,0.1-4.9,0.2-7.4,0.2c-0.1,0-0.1,0-0.2,0c-13.2,0.9-26,3.9-38.5,6.7
		c-15.7,3.6-30.5,7-46,6.7H257.6c-23.8-3.4-31.4,13.9-38.7,30.6c-0.5,1.2-1.1,2.4-1.6,3.6c-0.5,0.9-3.6,1.2-10.1-1.4
		c-6.9-3.4-13.6-7.4-20.2-11.2c-16.1-9.3-32.7-19-51.6-21.6c-0.1,0-0.2,0-0.3,0c-2.6-0.1-5.2-0.1-7.6-0.1h-75
		c-17.9-1.3-35.1-1.7-52.5-1.3v6c17.3-0.4,34.3,0,52.2,1.3c0.1,0,0.1,0,0.2,0h75.1c2.2,0,4.8,0,7.3,0c17.7,2.4,33,11.4,49.2,20.8
		c6.6,3.9,13.5,7.9,20.6,11.4c0.1,0,0.2,0.1,0.2,0.1c4.2,1.7,7.7,2.5,10.5,2.5c3.5,0,6-1.3,7.3-4c0,0,0-0.1,0.1-0.1
		c0.6-1.3,1.1-2.5,1.7-3.8c7.3-16.7,13.1-29.9,32.5-27c0.1,0,0.3,0,0.4,0l268.9,0c16.2,0.3,32.1-3.3,47.4-6.9
		c12.2-2.8,24.7-5.7,37.4-6.6c2.5,0,5.1-0.1,7.5-0.3c7.3-0.4,14.3-0.7,21.1,2c18,8.9,38.7,10.1,58.8,11.2c2.9,0.2,5.8,0.3,8.7,0.5
		c0.1,0,0.1,0,0.2,0c2.1,0,4.2,0,6.3,0h35.4c0.1,0,0.2,0,0.3,0c17.7-1.5,34.1,2.2,50.7,7.4V274C783.5,269,767.1,265.4,749,266.9z
		 M791.1,301.4H661.7l-7.1,0c-0.1,0-0.2,0-0.4,0c-21.4,2.6-35.4-3.5-41.6-18.1c-4.2-9.5-15.2-7.8-23.2-6.5c-1.7,0.3-3.3,0.5-4.9,0.7
		c-0.1,0-0.2,0-0.2,0c-13.7,2.7-26.6,7.2-39.1,11.6c-20.7,7.3-40.2,14.1-61.8,12.2c-0.1,0-0.2,0-0.3,0H283.5c-2.9,0-5.8,0-8.7,0.1
		c-10.9-0.5-18.7,5.5-26.1,11.4c-5.6,4.4-10.9,8.5-17.2,9.7c-14.5,2.1-27-3.8-40.2-10c-10-4.8-20.4-9.7-32-11c-0.1,0-0.2,0-0.3,0
		c-2.9,0-6,0-8.6-0.1c-2.6,0-5.2,0-7.8,0H0v6h142.6c2.5,0,5.1,0,7.6,0c2.7,0.1,5.7,0.1,8.6,0.1c10.5,1.3,20.4,5.9,29.9,10.4
		c11.5,5.4,23.3,11,36.7,11c2.3,0,4.6-0.2,7-0.5c0,0,0.1,0,0.1,0c7.8-1.5,14-6.3,19.9-10.9c6.9-5.4,13.4-10.6,22.2-10.1
		c0.1,0,0.2,0,0.2,0c2.8-0.1,5.8-0.1,8.6-0.1h199.7c22.9,2,43-5.1,64.2-12.6c12.2-4.3,24.8-8.7,38.1-11.3c1.6-0.2,3.4-0.5,5-0.7
		c8.7-1.4,14.6-1.9,16.8,2.9c7.2,17,23.6,24.6,47.6,21.7l6.9,0l129.4,0c2.9-0.1,5.9,0,8.8,0.2v-6C797,301.4,794.1,301.3,791.1,301.4
		z M746.7,232.5c-2.9,0-5.9,0-8.9,0l-22.2,0c-52-4-104.1-2-154.5,0H240.2c0,0-0.1,0-0.1,0c-1.3,0-2.6,0.1-4,0.1
		c-1.5,0-2.9,0.1-4.4,0.1c-13.6-1-22.1,7.7-29.6,15.5c-2,2-3.8,4-5.8,5.7c-1,0.5-3.4,1.4-6,1.5c-9.2-2.1-17.5-6.6-25.5-11
		c-11.3-6.2-23-12.6-37.3-12H64.8c-2.1-0.3-4.1-0.5-6.1-0.7c-0.8-0.1-1.6-0.1-2.4-0.2c-4.8-1.2-9.8-2.7-14.5-4.1
		c-13.7-4-27.7-8.2-41.8-8v6c13.1-0.2,26.4,3.7,40.1,7.8c4.9,1.4,10,2.9,15,4.2c0.1,0,0.3,0.1,0.4,0.1c0.9,0.1,1.8,0.2,2.6,0.3
		c2,0.2,4,0.4,6,0.7c0.1,0,0.3,0,0.4,0h63c0,0,0.1,0,0.1,0c12.6-0.5,23.1,5.2,34.2,11.3c8.5,4.6,17.3,9.4,27.5,11.7
		c0.2,0,0.4,0.1,0.6,0.1c4.2,0,7.9-1.6,9.3-2.3c0.2-0.1,0.5-0.3,0.7-0.5c2.2-2,4.4-4.2,6.4-6.3c7.3-7.5,14.1-14.5,25-13.7
		c0.1,0,0.2,0,0.4,0c1.5-0.1,3-0.1,4.5-0.1c1.3,0,2.6-0.1,4-0.1h320.9c0,0,0.1,0,0.1,0c50.3-2,102.3-4,154,0c0.1,0,0.2,0,0.2,0
		l22.3,0c3,0,6,0,9,0c0.1,0,0.1,0,0.2,0c13.8-0.8,27.7,1.4,41.1,3.6c4,0.6,8,1.3,12,1.9v-6.1c-3.7-0.5-7.4-1.1-11-1.7
		C775.3,234,761.1,231.7,746.7,232.5z"/>
	<g>
		<line class="st2" x1="0" y1="685.6" x2="800" y2="685.6"/>
		<line class="st2" x1="0" y1="499.8" x2="800" y2="499.8"/>
		<line class="st2" x1="0" y1="314" x2="800" y2="314"/>
		<line class="st2" x1="0" y1="128.1" x2="800" y2="128.1"/>
	</g>
</g>
<g id="Object">
	<g>
		<rect x="66.5" y="266.7" class="st3" width="177.9" height="177.9"/>
		<g>
			<rect x="73.7" y="262.5" class="st4" width="177.9" height="177.9"/>
		</g>
	</g>
	<path class="st3" d="M134.8,67v35.9c2.4-1.4,5.2-2.3,8.2-2.3c8.8,0,15.9,7.1,15.9,15.9c0,8.8-7.1,15.9-15.9,15.9
		c-3,0-5.8-0.8-8.2-2.3v15.7c2.4-1.4,5.2-2.3,8.2-2.3c8.8,0,15.9,7.1,15.9,15.9s-7.1,15.9-15.9,15.9c-3,0-5.8-0.8-8.2-2.3V189
		c2.4-1.4,5.2-2.3,8.2-2.3c8.8,0,15.9,7.1,15.9,15.9c0,8.8-7.1,15.9-15.9,15.9c-3,0-5.8-0.8-8.2-2.3V232c2.4-1.4,5.2-2.3,8.2-2.3
		c8.8,0,15.9,7.1,15.9,15.9c0,8.8-7.1,15.9-15.9,15.9c-3,0-5.8-0.8-8.2-2.3v15.7c2.4-1.4,5.2-2.3,8.2-2.3c8.8,0,15.9,7.1,15.9,15.9
		c0,8.8-7.1,15.9-15.9,15.9c-3,0-5.8-0.8-8.2-2.3v15.7c2.4-1.4,5.2-2.3,8.2-2.3c8.8,0,15.9,7.1,15.9,15.9c0,8.8-7.1,15.9-15.9,15.9
		c-3,0-5.8-0.8-8.2-2.3v15.7c2.4-1.4,5.2-2.3,8.2-2.3c8.8,0,15.9,7.1,15.9,15.9s-7.1,15.9-15.9,15.9c-3,0-5.8-0.8-8.2-2.3v15.7
		c2.4-1.4,5.2-2.3,8.2-2.3c8.8,0,15.9,7.1,15.9,15.9c0,8.8-7.1,15.9-15.9,15.9c-3,0-5.8-0.8-8.2-2.3v15.7c2.4-1.4,5.2-2.3,8.2-2.3
		c8.8,0,15.9,7.1,15.9,15.9c0,8.8-7.1,15.9-15.9,15.9c-3,0-5.8-0.8-8.2-2.3v15.7c2.4-1.4,5.2-2.3,8.2-2.3c8.8,0,15.9,7.1,15.9,15.9
		c0,8.8-7.1,15.9-15.9,15.9c-3,0-5.8-0.8-8.2-2.3v15.7c2.4-1.4,5.2-2.3,8.2-2.3c8.8,0,15.9,7.1,15.9,15.9s-7.1,15.9-15.9,15.9
		c-3,0-5.8-0.8-8.2-2.3v15.7c2.4-1.4,5.2-2.3,8.2-2.3c8.8,0,15.9,7.1,15.9,15.9s-7.1,15.9-15.9,15.9c-3,0-5.8-0.8-8.2-2.3v15.7
		c2.4-1.4,5.2-2.3,8.2-2.3c8.8,0,15.9,7.1,15.9,15.9c0,8.8-7.1,15.9-15.9,15.9c-3,0-5.8-0.8-8.2-2.3v15.7c2.4-1.4,5.2-2.3,8.2-2.3
		c8.8,0,15.9,7.1,15.9,15.9s-7.1,15.9-15.9,15.9c-3,0-5.8-0.8-8.2-2.3v25.6h538V67H134.8z"/>
	<g>
		<path class="st5" d="M143.8,59v35.9c2.4-1.4,5.2-2.3,8.2-2.3c8.8,0,15.9,7.1,15.9,15.9c0,8.8-7.1,15.9-15.9,15.9
			c-3,0-5.8-0.8-8.2-2.3v15.7c2.4-1.4,5.2-2.3,8.2-2.3c8.8,0,15.9,7.1,15.9,15.9s-7.1,15.9-15.9,15.9c-3,0-5.8-0.8-8.2-2.3V181
			c2.4-1.4,5.2-2.3,8.2-2.3c8.8,0,15.9,7.1,15.9,15.9c0,8.8-7.1,15.9-15.9,15.9c-3,0-5.8-0.8-8.2-2.3V224c2.4-1.4,5.2-2.3,8.2-2.3
			c8.8,0,15.9,7.1,15.9,15.9c0,8.8-7.1,15.9-15.9,15.9c-3,0-5.8-0.8-8.2-2.3v15.7c2.4-1.4,5.2-2.3,8.2-2.3c8.8,0,15.9,7.1,15.9,15.9
			c0,8.8-7.1,15.9-15.9,15.9c-3,0-5.8-0.8-8.2-2.3v15.7c2.4-1.4,5.2-2.3,8.2-2.3c8.8,0,15.9,7.1,15.9,15.9c0,8.8-7.1,15.9-15.9,15.9
			c-3,0-5.8-0.8-8.2-2.3v15.7c2.4-1.4,5.2-2.3,8.2-2.3c8.8,0,15.9,7.1,15.9,15.9s-7.1,15.9-15.9,15.9c-3,0-5.8-0.8-8.2-2.3v15.7
			c2.4-1.4,5.2-2.3,8.2-2.3c8.8,0,15.9,7.1,15.9,15.9c0,8.8-7.1,15.9-15.9,15.9c-3,0-5.8-0.8-8.2-2.3v15.7c2.4-1.4,5.2-2.3,8.2-2.3
			c8.8,0,15.9,7.1,15.9,15.9c0,8.8-7.1,15.9-15.9,15.9c-3,0-5.8-0.8-8.2-2.3v15.7c2.4-1.4,5.2-2.3,8.2-2.3c8.8,0,15.9,7.1,15.9,15.9
			c0,8.8-7.1,15.9-15.9,15.9c-3,0-5.8-0.8-8.2-2.3v15.7c2.4-1.4,5.2-2.3,8.2-2.3c8.8,0,15.9,7.1,15.9,15.9s-7.1,15.9-15.9,15.9
			c-3,0-5.8-0.8-8.2-2.3v15.7c2.4-1.4,5.2-2.3,8.2-2.3c8.8,0,15.9,7.1,15.9,15.9s-7.1,15.9-15.9,15.9c-3,0-5.8-0.8-8.2-2.3v15.7
			c2.4-1.4,5.2-2.3,8.2-2.3c8.8,0,15.9,7.1,15.9,15.9c0,8.8-7.1,15.9-15.9,15.9c-3,0-5.8-0.8-8.2-2.3v15.7c2.4-1.4,5.2-2.3,8.2-2.3
			c8.8,0,15.9,7.1,15.9,15.9s-7.1,15.9-15.9,15.9c-3,0-5.8-0.8-8.2-2.3v25.6h538V59H143.8z"/>
		<g>
			<line class="st6" x1="167.9" y1="108.6" x2="681.8" y2="108.6"/>
			<line class="st6" x1="167.9" y1="151.6" x2="681.8" y2="151.6"/>
			<line class="st6" x1="167.9" y1="194.7" x2="681.8" y2="194.7"/>
			<line class="st6" x1="167.9" y1="237.7" x2="681.8" y2="237.7"/>
			<line class="st6" x1="167.9" y1="280.8" x2="681.8" y2="280.8"/>
			<line class="st6" x1="167.9" y1="323.9" x2="681.8" y2="323.9"/>
			<line class="st6" x1="167.9" y1="366.9" x2="681.8" y2="366.9"/>
			<line class="st6" x1="167.9" y1="410" x2="681.8" y2="410"/>
			<line class="st6" x1="167.9" y1="453" x2="681.8" y2="453"/>
			<line class="st6" x1="167.9" y1="496.1" x2="681.8" y2="496.1"/>
			<line class="st6" x1="167.9" y1="539.1" x2="681.8" y2="539.1"/>
			<line class="st6" x1="167.9" y1="582.2" x2="681.8" y2="582.2"/>
			<line class="st6" x1="167.9" y1="625.3" x2="681.8" y2="625.3"/>
			<line class="st6" x1="167.9" y1="668.3" x2="681.8" y2="668.3"/>
		</g>
		<line class="st7" x1="196.5" y1="59" x2="196.5" y2="707.6"/>
	</g>
	<g>
		<rect x="52.6" y="559.5" class="st3" width="203.3" height="93.9"/>
		<rect x="56.6" y="556" class="st8" width="203.3" height="93.9"/>
		<path class="st9" d="M77.8,568.9c0-3.3-2.7-6-6-6c-3.3,0-6,2.7-6,6c0,3.3,2.7,6,6,6C75.2,574.9,77.8,572.2,77.8,568.9z"/>
		<g>
			<line class="st10" x1="76.8" y1="587.9" x2="239.7" y2="587.9"/>
			<line class="st10" x1="76.8" y1="603.4" x2="239.7" y2="603.4"/>
			<line class="st10" x1="76.8" y1="618.9" x2="239.7" y2="618.9"/>
			<line class="st10" x1="76.8" y1="634.3" x2="239.7" y2="634.3"/>
		</g>
	</g>
	<text transform="matrix(1 0 0 1 330.0283 223.54)" class="st11 st12">1+1=2</text>
	<text transform="matrix(1 0 0 1 273.0313 355.3486)" class="st11 st12">20 x 12 =</text>
	<g>
		<g>
			<path d="M249,387.5c85.3,0,170.7,1,256,4c3.2,0.1,3.2-4.9,0-5c-85.3-3-170.7-4-256-4C245.8,382.5,245.8,387.5,249,387.5
				L249,387.5z"/>
		</g>
	</g>
	<g>
		<g>
			<path d="M535.6,586.5c-13.1-5.4-26.9-10-41-11.8c-10.4-1.3-25.7-1.5-30.2,10.3c-2.6,6.7-0.9,14.4,1.3,21
				c3.5,10.7,10.2,19.3,18.4,26.9c8.9,8.2,19.2,14.7,29.5,20.9c5,3,10.5,5.7,14.9,9.6c2.6,2.3,4.6,5.2,8.2,5.9
				c7.1,1.4,12.4-3.2,17-7.6c5.1-4.8,10.9-9.9,14.8-15.8c2.2-3.3,5.5-6.2,8-9.4c3.5-4.6,6.7-9.4,9.6-14.4
				c5.7-9.5,10.5-19.7,13.2-30.4c4-15.9-1.3-32.9-18.1-38c-14.9-4.5-32.5,2.3-42.5,13.7c-2.7,3-4.7,6.5-6.2,10.3
				c-1.2,3,3.6,4.3,4.8,1.3c6.3-15.5,25.6-24.4,41.7-20.7c8.2,1.9,13.8,7.9,15.9,16c2.7,10.1-1.4,21.2-5.4,30.4
				c-7.5,17.3-19,32.6-32,46.2c-5.2,5.4-10.3,11.7-17,13.3c-4.4,1-6.4-2.6-9.4-5.2c-4.4-3.9-10-6.6-15-9.6
				c-15.8-9.5-33.1-20.4-42.3-37c-4.4-7.9-10.4-24.6-0.3-30.9c8.1-5.1,20.6-2.4,29.3-0.5c10.8,2.3,21.4,6,31.6,10.2
				C537.3,592.5,538.6,587.7,535.6,586.5L535.6,586.5z"/>
		</g>
	</g>
	<g>
		<rect x="550.7" y="118.7" class="st3" width="203.3" height="93.9"/>
		<rect x="554.7" y="115.3" class="st13" width="203.3" height="93.9"/>
		<path class="st9" d="M575.9,128.2c0-3.3-2.7-6-6-6c-3.3,0-6,2.7-6,6c0,3.3,2.7,6,6,6C573.3,134.1,575.9,131.5,575.9,128.2z"/>
		<g>
			<line class="st10" x1="574.9" y1="147.2" x2="737.8" y2="147.2"/>
			<line class="st10" x1="574.9" y1="162.7" x2="737.8" y2="162.7"/>
			<line class="st10" x1="574.9" y1="178.1" x2="737.8" y2="178.1"/>
			<line class="st10" x1="574.9" y1="193.6" x2="737.8" y2="193.6"/>
		</g>
	</g>
	<g>
		<rect x="565.4" y="357.9" class="st3" width="177.9" height="177.9"/>
		<rect x="570.6" y="355.9" class="st14" width="177.9" height="177.9"/>
		<g>
			<g>
				<path class="st15" d="M647.1,394.3c-4.1,12-8.3,24-15.5,34.5c-1.2,1.8-3.4,1.8-5.4,2.4c-3.1,0.9-6.2,2-9.2,3
					c-6,2-12.3,4.3-18.6,4.9c-2.3,0.2-3.6,3.4-1.3,4.7c12.1,6.5,24.8,11.5,38.4,13.2c-0.8-1.1-1.6-2.1-2.4-3.2
					c-4,15-6.6,30.7-6.7,46.2c0,2.2,2.7,3.2,4.3,1.8c12.3-11.5,19.8-26.1,30.4-38.9c-1.2,0-2.4,0-3.5,0c10.8,10.3,19.6,26,34.2,31.3
					c1.8,0.7,3.6-1.4,3.1-3.1c-3.9-14.1-3.6-28.5-11.8-41.3c-0.1,1-0.3,2-0.4,3c10.4-9,22.6-15.8,30.1-27.7c1.1-1.7-0.4-3.6-2.2-3.8
					c-11.9-1.1-23.6-0.3-35.5,1.3c0.8,0.6,1.6,1.2,2.4,1.8c-2-6.3-6.8-11.9-10.5-17.2c-2.4-3.5-4.7-7-6.8-10.6
					c-1.4-2.4-3.3-5.3-3.2-8.2c0.1-3.2-4.9-3.2-5,0c-0.1,6.5,5.4,13.3,8.7,18.3c3.9,5.9,9.8,12.2,12,19c0.3,1,1.3,2,2.4,1.8
					c11.9-1.6,23.5-2.4,35.5-1.3c-0.7-1.3-1.4-2.5-2.2-3.8c-7.1,11.5-19.3,18.1-29.3,26.7c-0.8,0.7-1,2.1-0.4,3
					c8,12.3,7.5,26.4,11.3,40.1c1-1,2.1-2.1,3.1-3.1c-7-2.6-12.4-8.9-17.3-14.1c-4.9-5.3-9.4-10.9-14.7-15.9c-0.9-0.9-2.7-1.1-3.5,0
					c-10.6,12.8-18.1,27.4-30.4,38.9c1.4,0.6,2.8,1.2,4.3,1.8c0.1-15.2,2.6-30.3,6.5-44.9c0.5-1.7-0.8-3-2.4-3.2
					c-12.7-1.5-24.7-6.4-35.9-12.5c-0.4,1.6-0.8,3.1-1.3,4.7c6.4-0.6,12.5-2.6,18.6-4.6c3.1-1,6.3-2.1,9.4-3.1
					c2.1-0.7,6.2-0.9,7.8-2.5c4.1-4.1,6.9-10.6,9.3-15.7c3.4-7.3,6-15,8.6-22.6C652.9,392.6,648.1,391.3,647.1,394.3L647.1,394.3z"
					/>
			</g>
		</g>
	</g>
	<g>
		<path class="st3" d="M727.9,147.1h-15c-3.8,0-7,3.1-7,7v278.7c0,1.2,0.3,2.4,0.8,3.4l0,0l13.7,29.6l13.7-29.6l0,0
			c0.5-1,0.8-2.2,0.8-3.4V154.1C734.9,150.3,731.8,147.1,727.9,147.1z"/>
		<g>
			<rect x="710.8" y="165.2" class="st16" width="29" height="11.6"/>
			<path class="st17" d="M739.8,165.2v-15c0-3.9-3.2-7-7-7h-15c-3.8,0-7,3.1-7,7v15H739.8z"/>
			<g>
				<polygon class="st18" points="739,432.2 725.3,461.8 711.7,432.2 725.3,426.9 				"/>
				<polygon class="st15" points="721.4,453.4 725.3,461.8 729.2,453.4 				"/>
			</g>
			<path class="st19" d="M710.8,176.8v252.1c0,4,3.2,7.3,7.3,7.3c4,0,7.2-3.2,7.2-7.3V176.8H710.8z"/>
			<path class="st20" d="M725.3,176.8v252.1c0,4,3.2,7.3,7.3,7.3c4,0,7.2-3.2,7.2-7.3V176.8H725.3z"/>
		</g>
	</g>
	<g>
		<path class="st3" d="M300.5,607.1l0.2-0.2l-10.4-27L100.4,390.1c-2.7-2.7-7.2-2.7-9.9,0l-10.6,10.6c-2.7,2.7-2.7,7.2,0,9.9
			l189.8,189.8l27,10.4l0.2-0.2c1,1,2.6,1,3.6,0C301.5,609.7,301.5,608.1,300.5,607.1z"/>
		<g>
			<rect x="214.4" y="430.5" transform="matrix(0.707 -0.7072 0.7072 0.707 -305.0245 307.7801)" width="9.1" height="183"/>
			<path d="M304.1,603.7c-1-1-2.6-1-3.6,0c-1,1-1,2.6,0,3.6c1,1,2.6,1,3.6,0C305.1,606.2,305.1,604.6,304.1,603.7z"/>
			<path d="M106.2,388.8l-2.1-2.1c-2.7-2.7-7.2-2.7-9.9,0l-10.6,10.6c-2.7,2.7-2.7,7.2,0,9.9l2.1,2.1L106.2,388.8z"/>
			<g class="st21">
				
					<rect x="177.4" y="365.2" transform="matrix(0.7071 -0.7071 0.7071 0.7071 -298.0467 276.4345)" class="st22" width="14.5" height="265.5"/>
				
					<rect x="187.7" y="355" transform="matrix(0.7071 -0.7071 0.7071 0.7071 -287.794 280.6807)" class="st23" width="14.5" height="265.5"/>
			</g>
			<polygon class="st24" points="273.4,597 300.4,607.4 304.3,603.5 293.9,576.5 			"/>
		</g>
	</g>
	<g>
		<path class="st3" d="M701.5,552.1l-17-17c-9.3-9.3-24.6-9.3-33.9,0l-75.3,75.3c-9.3,9.3-9.3,24.6,0,33.9l17,17
			c9.3,9.3,24.6,9.3,33.9,0l75.3-75.3C710.8,576.7,710.8,561.4,701.5,552.1z"/>
		<g>
			<path class="st25" d="M629.1,556.3l23.9-23.9c9.3-9.3,24.6-9.3,33.9,0l17,17c9.3,9.3,9.3,24.6,0,33.9L680,607.2L629.1,556.3z"/>
			<path class="st26" d="M680,607.2l-51.4,51.4c-9.3,9.3-24.6,9.3-33.9,0l-17-17c-9.3-9.3-9.3-24.6,0-33.9l51.4-51.4L680,607.2z"/>
		</g>
	</g>
	<g>
		<rect x="41.7" y="123.9" class="st3" width="177.9" height="177.9"/>
		<g>
			<rect x="48.8" y="119.6" class="st27" width="177.9" height="177.9"/>
			<text transform="matrix(1 0 0 1 59.374 217.896)" class="st11 st28">Homework</text>
		</g>
	</g>
</g>
</svg>
