<svg xmlns="http://www.w3.org/2000/svg" viewBox="0 0 94.83 93.27"><defs><style>.cls-1{fill:#1a3966;}</style></defs><title>logo</title><g id="Réteg_2" data-name="Réteg 2"><g id="Réteg_1" data-name="Réteg 1"><path class="cls-1" d="M47.34,55.82A24,24,0,0,1,58.9,63L93.28,58.5A46.67,46.67,0,0,0,51,0H50.9L43.69.13,0,.94H0L5.15,16.67,1.38,43.4l.1,3,.1,3c0,.11,0,.23,0,.35a46.66,46.66,0,0,0,86,21.71L56.12,75.61c-3.8,1.53-9.22,1.64-14.79-.06-9.26-2.82-15.42-9.53-13.76-15S38.08,53,47.34,55.82Zm7.35-30.58A12.5,12.5,0,1,1,39.08,17,12.51,12.51,0,0,1,54.69,25.24Z"/></g></g></svg>