<?xml version="1.0" encoding="utf-8"?>
<!-- Generator: Adobe Illustrator 22.1.0, SVG Export Plug-In . SVG Version: 6.00 Build 0)  -->
<svg version="1.1" xmlns="http://www.w3.org/2000/svg" xmlns:xlink="http://www.w3.org/1999/xlink" x="0px" y="0px"
	 viewBox="0 0 500 500" style="enable-background:new 0 0 500 500;" xml:space="preserve">
<style type="text/css">
	.st0{fill:url(#SVGID_1_);}
	.st1{fill:url(#SVGID_2_);}
	.st2{opacity:0.2;fill:#5773BC;}
	.st3{fill:url(#SVGID_3_);}
	.st4{fill:url(#SVGID_4_);}
	.st5{fill:url(#SVGID_5_);}
	.st6{fill:url(#SVGID_6_);}
	.st7{fill:url(#SVGID_7_);}
	.st8{fill:#BBE0FB;}
	.st9{fill:#91CEFA;}
	.st10{fill:#5773BC;}
	.st11{fill:#FFFFFF;}
	.st12{fill:#F5911E;}
	.st13{fill:#F9AE40;}
	.st14{fill:#404041;}
	.st15{fill:#58595B;}
	.st16{fill:#DE5549;}
	.st17{fill:#E6E9ED;}
	.st18{fill:#FFC30C;}
</style>
<g id="BACKGROUND">
	<radialGradient id="SVGID_1_" cx="250" cy="250" r="215.802" gradientUnits="userSpaceOnUse">
		<stop  offset="0" style="stop-color:#A2D3F4;stop-opacity:0.4"/>
		<stop  offset="1" style="stop-color:#71B2F4"/>
	</radialGradient>
	<rect class="st0" width="500" height="500"/>
	<linearGradient id="SVGID_2_" gradientUnits="userSpaceOnUse" x1="250" y1="296.6438" x2="250" y2="504.2898">
		<stop  offset="0" style="stop-color:#A2D3F4;stop-opacity:0.4"/>
		<stop  offset="1" style="stop-color:#71B2F4"/>
	</linearGradient>
	<rect y="331.1" class="st1" width="500" height="168.9"/>
</g>
<g id="OBJECTS">
	<path class="st2" d="M358,469l-0.3-0.3l-0.3-0.2l-0.2-0.1l-0.7-0.5c-0.5-0.3-1.2-0.8-1.7-1.2c-4.8-2.9-11.3-5.1-18.3-6.7
		c-7-1.6-14.2-2.7-21.2-3.6c-7-0.9-13.9-1.6-20.3-2.4c-6.9-0.8-13.2-1.3-18-2.2c-4.6-0.8-8.2-2.4-9.2-3.6c-0.2-0.3-0.4-0.5-0.4-0.8
		c0-0.2,0.1-0.6,0.2-0.7c0.3-0.5,1.4-1,2.6-1.3c2.5-0.6,5.8-0.3,6.3,0.3c1.1,0.9,1,2,0.3,2.4c-0.8,0.5-2.1,0.4-2,0.5
		c0,0,0.2,0,0.7,0.1c0.4,0.1,1.3,0.1,2.3-0.1c1-0.2,1.9-0.7,2.4-1.3c0.6-0.6,0.9-1.3,0.7-2.2c-0.1-0.4-0.7-1.1-1.5-1.5
		c-0.8-0.4-1.9-0.8-3-1c-2.4-0.5-5.3-0.7-8.3-0.4c-2.9,0.3-6.1,0.9-8.4,2.3c-1.2,0.8-1.9,1.5-2.2,2.3c-0.2,0.4-0.2,0.8-0.2,1.2
		c-6.5-4.4-6.8-7.9-5.2-14.5c0.8-3.3,2.5-6,4.5-8.1h102.9L328.7,377h141.7l-46.1-17.7l-98.9-8.5L124.9,351l-51.8,11.8l-49.6,17.8
		l143-3l-58.1,47.9H227c2.1,2.1,4,4.8,5,8.2c1.9,6.5,1.8,10.1-4.5,14.5c0-0.4-0.1-0.8-0.3-1.2c-0.4-0.9-1-1.6-2.3-2.3
		c-2.4-1.3-5.6-1.9-8.5-2.2c-3-0.2-5.9,0-8.2,0.5c-1.2,0.3-2.2,0.6-3,1c-0.8,0.4-1.4,1.1-1.4,1.5c-0.2,0.9,0.2,1.6,0.8,2.2
		c0.6,0.6,1.5,1,2.5,1.2c1,0.2,1.8,0.1,2.3,0.1c0.4-0.1,0.7-0.1,0.7-0.1c0.1,0-1.2,0-2-0.5c-0.8-0.4-0.9-1.5,0.2-2.4
		c0.4-0.6,3.8-1,6.3-0.4c1.3,0.3,2.4,0.8,2.7,1.2c0.1,0.1,0.2,0.5,0.2,0.7c0,0.3-0.2,0.5-0.4,0.8c-0.9,1.2-4.5,2.9-9.1,3.7
		c-4.8,1-11.1,1.5-17.9,2.4c-6.4,0.8-13.2,1.6-20.2,2.6c-7,1-14.1,2.1-21,3.8c-6.8,1.7-13.3,3.9-17.9,6.9c-0.6,0.4-1.2,0.8-1.7,1.2
		l-0.6,0.5l-0.2,0.1l-0.2,0.2l-0.3,0.3c-0.9,0.8-1.6,1.7-2.1,2.6c-1.1,1.7-1.3,3.5-0.9,5.2c0.8,3.4,4.2,6.7,9.8,9
		c0.7,0.3,1.4,0.6,2.1,0.8c0.8,0.2,1.4,0.5,2.3,0.7c0.9,0.2,1.7,0.5,2.6,0.7c0.8,0.2,1.4,0.3,2.1,0.4c3.5,0.6,6.7,1,9.9,1.1
		c6.4,0.3,12.1-0.2,16.8-0.8c4.5-0.6,8.2-1.4,11.2-2.2c0.3,1,0.7,1.9,1,2.4c0.2,0.4,1.1,0.7,2.2,0.7l52.7-0.2l12-0.1l52.7-0.2
		c1,0,1.9-0.3,2.1-0.8c0.3-0.5,0.6-1.4,0.9-2.4c3,0.7,6.7,1.5,11.3,2.1c4.7,0.6,10.4,1,16.8,0.7c3.3-0.2,6.4-0.5,9.9-1.2
		c0.7-0.1,1.3-0.3,2-0.4c0.9-0.2,1.7-0.4,2.6-0.7c0.9-0.2,1.5-0.5,2.3-0.8c0.7-0.2,1.4-0.5,2.1-0.8c5.4-2.3,8.7-5.6,9.3-9
		c0.3-1.7,0-3.5-1.2-5.2C359.7,470.6,358.9,469.8,358,469z M202,461c-16.7,7.4-20.8,15.6-21.1,21.5c-1.1,0.3-2.5,0.7-4.2,1.1
		c-2.5,0.6-5.6,1.2-9.4,1.7c-3.7,0.5-8.1,0.7-12.5,0.5c-2.2-0.1-4.5-0.4-6.4-0.8c-0.6-0.1-1.4-0.3-1.9-0.4c-0.4-0.1-0.8-0.2-1.2-0.4
		c-0.8-0.3-1.9-0.6-2.7-1c-3.5-1.4-5.8-3.6-6.3-5.9c-0.3-1.2-0.1-2.4,0.7-3.5c0.4-0.6,0.8-1.1,1.4-1.7l0.2-0.2c0,0,0.1-0.1,0,0
		l0.2-0.1l0.6-0.5c0.4-0.3,0.7-0.5,1.1-0.8c3.4-2.1,8.4-3.9,14.1-5.3c5.7-1.4,12.2-2.5,18.7-3.4c6.6-0.9,13.3-1.8,19.9-2.6
		c5.9-0.8,12.4-1.4,18.7-2.6C209,457.8,205.7,459.3,202,461z M349.9,476.4c-0.4,2.3-2.6,4.5-6,6c-0.8,0.4-1.8,0.7-2.6,1
		c-0.4,0.1-0.8,0.2-1.2,0.4c-0.5,0.1-1.3,0.3-1.9,0.4c-1.8,0.4-4.2,0.7-6.3,0.8c-4.4,0.3-8.8,0-12.5-0.4c-3.8-0.4-6.9-1-9.5-1.6
		c-1.8-0.4-3.2-0.8-4.3-1.1c-0.6-5.9-5.1-14-22.2-21.3c-3.8-1.6-7.2-3.1-10.1-4.4c6.4,1.2,12.8,1.7,18.8,2.4
		c6.6,0.8,13.4,1.6,20,2.5c6.6,0.9,13.2,1.9,18.9,3.3c5.7,1.4,10.8,3.1,14.4,5.2c0.4,0.3,0.7,0.4,1.2,0.8l0.7,0.5l0.2,0.1
		c-0.1-0.1,0,0,0,0l0.2,0.2c0.6,0.5,1.1,1.1,1.5,1.7C349.8,474,350,475.2,349.9,476.4z"/>
	<linearGradient id="SVGID_3_" gradientUnits="userSpaceOnUse" x1="250" y1="161.6522" x2="250" y2="-74.3126">
		<stop  offset="0" style="stop-color:#FFFFFF;stop-opacity:0"/>
		<stop  offset="1" style="stop-color:#FFFFFF"/>
	</linearGradient>
	<polygon class="st3" points="265.7,0 258.4,0 241.6,0 234.3,0 181,233.6 244.5,229.8 264.4,229.8 319,229.8 	"/>
	<g>
		<linearGradient id="SVGID_4_" gradientUnits="userSpaceOnUse" x1="154.0721" y1="209.4234" x2="104.5744" y2="-81.5624">
			<stop  offset="0" style="stop-color:#FFFFFF;stop-opacity:0"/>
			<stop  offset="1" style="stop-color:#FFFFFF"/>
		</linearGradient>
		<path class="st4" d="M143.5,0c0,0,40.1,189,44.3,191.8l-71,13.8L121.8,0H143.5z"/>
		
			<linearGradient id="SVGID_5_" gradientUnits="userSpaceOnUse" x1="447.2539" y1="209.4234" x2="397.7562" y2="-81.5624" gradientTransform="matrix(-1 0 0 1 793.1818 0)">
			<stop  offset="0" style="stop-color:#FFFFFF;stop-opacity:0"/>
			<stop  offset="1" style="stop-color:#FFFFFF"/>
		</linearGradient>
		<path class="st5" d="M356.5,0c0,0-40.1,189-44.3,191.8l71,13.8L378.2,0H356.5z"/>
	</g>
	<g>
		<linearGradient id="SVGID_6_" gradientUnits="userSpaceOnUse" x1="71.7778" y1="178.8685" x2="5.7808" y2="-74.6191">
			<stop  offset="0" style="stop-color:#FFFFFF;stop-opacity:0"/>
			<stop  offset="1" style="stop-color:#FFFFFF"/>
		</linearGradient>
		<polygon class="st6" points="54.9,0 110.5,161.1 27.7,176.4 32.9,0 		"/>
		
			<linearGradient id="SVGID_7_" gradientUnits="userSpaceOnUse" x1="438.4363" y1="178.8685" x2="372.4393" y2="-74.6191" gradientTransform="matrix(-1 0 0 1 866.6585 0)">
			<stop  offset="0" style="stop-color:#FFFFFF;stop-opacity:0"/>
			<stop  offset="1" style="stop-color:#FFFFFF"/>
		</linearGradient>
		<polygon class="st7" points="445.1,0 389.5,161.1 472.3,176.4 467.1,0 		"/>
	</g>
	<polygon class="st2" points="232.7,282 184.3,292.7 330.3,292.7 281.6,281.5 	"/>
	<g>
		<g>
			<g>
				<polygon class="st8" points="425.6,325.2 339.4,325.2 327.5,312.4 406.5,312.4 				"/>
				<rect x="339.4" y="325.2" class="st9" width="86.2" height="37.9"/>
				<polygon class="st10" points="327.5,312.4 327.5,346.6 339.4,363.1 339.4,325.2 				"/>
			</g>
			<g>
				<path class="st11" d="M388,345.3v0.4l0,0.5l-0.1,0.4l-0.1,0.6l-0.1,0.4l-0.1,0.2l-0.3,0.6l-0.3,0.4l-0.1,0.2l-0.3,0.3l-0.3,0.3
					l-0.3,0.2l-0.7,0.5l-0.4,0.2l-0.5,0.2l-0.4,0.1l-0.6,0.2l-0.4,0.1l-0.6,0.2l-0.4,0.1l-0.5,0.1l-0.5,0.1l-0.6,0h-0.4l-1.5-0.1
					l-0.9-0.1l-0.5-0.1l-0.4-0.1l-0.4-0.1l-0.6-0.2l-0.4-0.1l-0.4-0.2l-0.4-0.2l-0.6-0.3l-0.4-0.2l-0.8-0.6l-0.4-0.4l-0.3-0.3
					l-0.2-0.4l-0.2-0.4l-0.2-0.6l-0.1-0.4l-0.2-0.5l-0.1-0.4l-0.1-0.6l0.1-0.3l0.2-0.2l0.4-0.1l0.9-0.1l0.9,0.1h0.4l1.3-0.1h0.7
					l0.4,0.1l0.2,0.2l0.2,0.4l0.1,0.2l0.2,0.4l0.2,0.2l0.3,0.3l0.2,0.1l0.4,0.2l0.2,0.1l0.5,0.1l0.5,0.1l0.5,0.1h0.4l0.7-0.1
					l0.4-0.1l0.2-0.1l0.4-0.2l0.2-0.1l0.3-0.3l0.1-0.2l0.1-0.4l0.1-0.2V345l-0.1-0.2l-0.1-0.4l-0.1-0.2l-0.3-0.3l-0.5-0.3l-0.2-0.1
					l-0.4-0.2l-0.4-0.1l-0.5-0.1l-0.5,0h-0.7l-0.9,0.1l-0.6,0h-0.6l-0.3-0.1l-0.2-0.2l-0.1-0.3l-0.1-0.4l0-0.4l0-0.4V341l0-0.6
					l0-0.5l0.1-0.4l0.1-0.2l0.2-0.1l0.9-0.1l0.4,0l0.8,0.1l0.4,0l0.2,0l0.4,0l0.6-0.1l0.5-0.1l0.2-0.1l0.4-0.2l0.2-0.1l0.3-0.3
					l0.1-0.2l0.2-0.4l0-0.3l0-0.3l-0.2-0.4l-0.1-0.2l-0.4-0.4l-0.4-0.2l-0.4-0.1l-0.4-0.1l-0.6,0l-0.4,0l-0.7,0.1l-0.4,0.1l-0.2,0.1
					l-0.4,0.2l-0.2,0.1l-0.3,0.3l-0.1,0.2l-0.2,0.4l-0.1,0.3l-0.2,0.2l-0.4,0.1h-0.7l-1.1-0.1l-0.4,0l-0.8,0.1l-0.4,0l-0.6,0
					l-0.3-0.1l-0.1-0.1l-0.1-0.2v-0.3l0.1-0.6l0.1-0.4l0.3-0.8l0.2-0.5l0.2-0.4l0.2-0.4l0.3-0.4l0.4-0.3l0.4-0.3l0.4-0.2l0.4-0.3
					l0.4-0.2l0.4-0.2l0.4-0.2l0.5-0.2l0.5-0.1l0.5-0.1l0.5-0.1l0.9-0.2l0.5-0.1l0.5,0l0.4,0l0.6,0l1.3,0.2l0.6,0.1l0.4,0.1l0.4,0.1
					l0.4,0.1l0.6,0.2l0.4,0.2l0.4,0.2l0.4,0.2l0.4,0.3l0.4,0.3l0.4,0.4l0.3,0.3l0.1,0.2l0.2,0.4l0.2,0.4l0.2,0.4l0.1,0.4l0.2,0.6
					l0.1,0.4l0,0.5v0.5l0,0.2l-0.1,0.4l-0.1,0.2l-0.1,0.4l-0.4,0.7l-0.3,0.5l-0.2,0.3l-0.5,0.4l-0.2,0.2l-0.1,0.2l0.1,0.2l0.6,0.4
					l0.3,0.3l0.3,0.3l0.3,0.3l0.2,0.3l0.3,0.6l0.1,0.4l0.1,0.5l0,0.4L388,345.3z"/>
			</g>
		</g>
		<g>
			<g>
				<g>
					
						<rect x="74.4" y="320.6" transform="matrix(-1 -1.367116e-03 1.367116e-03 -1 248.2777 689.0121)" class="st9" width="99.9" height="47.7"/>
					<polygon class="st8" points="74.4,320.4 174.4,320.6 188.1,305.8 96.6,305.6 					"/>
				</g>
				<polygon class="st10" points="188.1,305.8 188,349.2 174.3,368.3 174.4,320.6 				"/>
			</g>
			<g>
				<path class="st11" d="M118.3,349.6l0,0.2l0.3,0.1l0.4,0l1.2,0h2.6l1.6,0h0.5l3.7-0.1l0.5,0l1-0.1h0.5l0.4,0.1l0.2,0.3l0.1,0.4
					l0,0.5l0,0.5v1.3l0.1,0.8l0,0.5l0,0.4l-0.1,0.3l-0.1,0.2l-0.2,0.1l-1,0.2l-0.4,0l-0.7,0l-0.5,0l-2.3-0.1h-1.8l-2.8,0.2H117
					l-2.3,0l-1.8-0.1l-0.4,0l-0.2-0.1l-0.1-0.2l0-0.3l0.1-1.9v-0.5l-0.1-1.9l0-0.5l0.1-1l0.2-1l0.1-0.5l0.2-0.5l0.2-0.5l0.1-0.3
					l0.2-0.5l0.3-0.4l0.5-0.6l0.3-0.3l0.6-0.4l0.4-0.3l0.6-0.4l0.4-0.2l0.7-0.3l0.5-0.2l0.8-0.3l0.5-0.1l0.5-0.1l0.5-0.1l1.6-0.1
					l0.3,0l0.6,0l0.8,0l0.6-0.1l0.3-0.1l0.5-0.3l0.2-0.2l0.3-0.4l0.2-0.7v-0.7l-0.1-0.3l-0.2-0.5l-0.1-0.2l-0.3-0.4l-0.4-0.2
					l-0.7-0.2l-0.4-0.1l-0.5,0H122l-0.4,0l-0.4,0.1l-0.7,0.2l-0.4,0.2l-0.2,0.1l-0.3,0.3l-0.2,0.2l-0.2,0.5l-0.2,0.4l-0.3,0.2
					l-0.5,0.1H118l-0.5,0l-1.3-0.1h-1.3l-0.5,0l-0.8-0.1l-0.4-0.1l-0.2-0.1l-0.1-0.2v-0.5l0.1-0.5l0.1-0.3l0.1-0.5l0.1-0.2l0.2-0.5
					l0.3-0.6l0.3-0.4l0.3-0.4l0.3-0.4l0.4-0.3l0.4-0.3l0.6-0.4l0.4-0.3l1-0.5l0.5-0.2l0.5-0.2l0.7-0.2l0.5-0.1l0.5-0.1l0.4-0.1
					l0.7,0l0.5,0h1l0.7,0h0.5l0.5,0l0.5,0.1l0.7,0.2l0.5,0.2l1,0.3l0.5,0.2l0.5,0.2l0.7,0.3l0.4,0.3l0.4,0.3l0.4,0.4l0.3,0.4
					l0.3,0.4l0.4,0.6l0.2,0.4l0.2,0.5l0.2,0.5l0.2,0.4l0.1,0.5l0.1,0.8v0.5l0,0.7l-0.1,0.4l-0.2,0.7l-0.1,0.5l-0.2,0.5l-0.2,0.5
					l-0.3,0.6l-0.3,0.4l-0.4,0.5l-0.3,0.3l-0.5,0.5l-0.4,0.3l-0.7,0.3l-0.5,0.2l-0.5,0.2l-0.5,0.2l-0.5,0.1l-0.5,0.1l-0.7,0.1
					l-0.5,0.1l-0.5,0.1l-0.5,0.1l-0.8,0.1l-0.5,0h-0.3l-0.6,0h-0.3l-0.5,0.1l-0.3,0.1l-0.5,0.2l-0.2,0.2l-0.3,0.3l-0.3,0.4l-0.2,0.4
					l-0.1,0.3l-0.1,0.4L118.3,349.6z"/>
			</g>
		</g>
		<g>
			<g>
				<polygon class="st8" points="330.3,292.7 184.3,292.7 202.9,273.4 311.6,273.4 				"/>
				<rect x="184.3" y="292.7" class="st9" width="145.9" height="80.3"/>
			</g>
			<g>
				<path class="st11" d="M268.4,348.8v1l-0.2,0.8l-0.4,0.4l-0.4,0.3l-0.4,0.2h-1.7l-2.5-0.1h-0.9l-7.9-0.1H253l-5.9,0.2l-1.9-0.1
					l-0.6-0.2l-0.2-0.2l-0.1-0.4l-0.1-0.6v-1.3l0.1-1.8l-0.1-0.9l-0.2-1.8v-0.9l0.1-0.4l0.2-0.6l0.6-0.1l2.3,0.2h0.9l1.3-0.1
					l0.7-0.1l0.4-0.2l0.2-0.4v-4.2l0.1-0.9l0.2-3.5v-0.9l-0.1-1.3l-0.1-0.9l-0.1-1.5l-0.1-0.9l0.1-1.5l0.1-2v-0.6l-0.2-0.4l-0.4-0.2
					l-0.5-0.1l-2.1,0.7l-0.9,0.2l-0.9,0.1h-0.8l-0.5-0.2l-0.2-0.4l-0.2-0.6l-0.1-0.5v-0.9l0.1-1.5v-1l-0.1-1.8v-1l0.1-0.8l0.2-0.4
					l0.3-0.2l0.6-0.3l0.5-0.2l0.9-0.4l1.7-0.5l0.8-0.3l3.1-1.2l0.9-0.3l3.1-1l0.9-0.4l1.3-0.6l1-0.4l0.9-0.2l0.7-0.1l0.6,0.2
					l0.3,0.4l0.2,0.7l0.1,0.7l-0.1,0.7l-0.1,2.3l-0.1,0.9v9.1l-0.2,3.6v0.9l0.2,3.6l-0.1,0.9l-0.2,3.6l-0.1,0.9l0.2,3.6l0.1,0.6
					l0.2,0.4l0.4,0.2l0.7,0.1l4.2,0.1l0.4,0.1l0.2,0.5l0.1,0.4l0.1,0.9l-0.1,1.8v0.9L268.4,348.8z"/>
			</g>
		</g>
	</g>
	<g>
		<g>
			<g>
				<path class="st12" d="M284.3,195.7c0,0,0.3-0.3,1-0.8c0.6-0.4,1.4-1,2.6-1.7c1.2-0.7,2.7-1.4,4.5-1.9c1.8-0.5,3.9-0.8,6-0.6
					c1,0.1,2.2,0.5,3,0.8c0.3,0.2,0.7,0.3,0.9,0.5c0.2,0.1,0.4,0.3,0.6,0.4c0.4,0.3,0.9,0.6,1.3,1.1c1.7,1.6,2.7,4,3,6.6
					c0.1,1.3,0,2.7-0.3,3.9c-0.2,0.6-0.4,1.3-0.7,1.9l-0.1,0.2c0,0-0.1,0.1,0,0l-0.1,0.1l-0.3,0.6c-0.2,0.4-0.3,0.6-0.5,0.9
					c-1.6,2.4-4,4.4-6.7,6c-2.7,1.6-5.8,2.8-8.9,3.9c-3.1,1.1-6.3,2-9.5,2.9c-2.9,1-6.1,1.6-9.2,3.1c-1.6,0.7-3.1,1.8-4.3,3
					c-1.2,1.2-2.3,2.7-2.7,4.6c-0.2,0.9-0.3,1.9-0.1,2.9c0.2,1,0.5,1.7,1.1,2.6c1.1,1.5,2.7,2.2,4.1,2.4c1.4,0.3,2.8,0,3.9-0.6
					c0.6-0.3,1.1-0.7,1.4-1.2c0.4-0.5,0.7-1.2,0.7-1.7c0.1-1-0.1-1.8-0.4-2.4c-0.3-0.6-0.7-1.2-1.2-1.4c-0.5-0.2-0.9-0.2-1.1-0.1
					c-0.2,0.1-0.3,0.1-0.3,0.1c0,0,0.6-0.1,1,0.5c0.4,0.5,0.4,1.7-0.1,2.7c-0.2,0.7-1.8,1.1-3,0.4c-0.6-0.3-1.1-0.9-1.3-1.4
					c0-0.1-0.1-0.5-0.1-0.8c0-0.3,0.1-0.6,0.2-0.9c0.4-1.3,2.2-3.2,4.3-4.1c2.3-1.1,5.3-1.7,8.5-2.7c3.1-0.9,6.3-1.8,9.6-2.9
					c3.3-1.1,6.7-2.3,10-4.2c3.3-1.8,6.3-4.4,8.6-7.7c0.3-0.4,0.6-0.9,0.8-1.3l0.3-0.6l0.1-0.1l0.1-0.2l0.2-0.3
					c0.4-0.9,0.8-1.9,1-2.9c0.5-1.9,0.6-3.9,0.4-5.9c-0.4-3.8-2-7.5-4.7-10c-0.3-0.3-0.6-0.6-1-0.9c-0.4-0.3-0.7-0.6-1.1-0.8
					c-0.4-0.3-0.8-0.5-1.2-0.7c-0.4-0.2-0.7-0.3-1-0.5c-1.7-0.7-3.2-1.1-4.7-1.2c-3.1-0.3-5.8,0.2-8,0.9c-2.2,0.7-4.1,1.6-5.5,2.5
					c-1.4,0.8-2.5,1.7-3.2,2.3c-0.6,0.5-0.9,0.8-0.9,0.8L284.3,195.7z"/>
				<path class="st13" d="M283.2,194.4c0,0,0.3-0.3,1-0.8c0.6-0.5,1.5-1.2,2.8-1.9c1.3-0.7,2.9-1.5,4.8-2.1c1.9-0.6,4.2-1,6.7-0.7
					c1.2,0.1,2.5,0.5,3.6,1c0.3,0.2,0.6,0.3,0.9,0.5l0.8,0.5c0.5,0.4,1.1,0.8,1.6,1.3c2,1.9,3.3,4.8,3.6,7.8
					c0.3,3.1-0.5,6.3-2.3,8.9c-1.8,2.7-4.5,4.9-7.4,6.6c-2.9,1.7-6.1,2.9-9.3,4c-3.2,1.1-6.4,2-9.5,2.9c-3,1-6.2,1.6-9,2.9
					c-1.4,0.7-2.7,1.6-3.8,2.6c-1.1,1.1-1.9,2.3-2.3,3.8c-0.4,1.4-0.1,3,0.6,4.1c0.8,1.1,2,1.8,3.1,2.1c1.1,0.3,2.3,0.2,3.2-0.3
					c0.5-0.2,0.9-0.5,1.2-0.9c0.3-0.3,0.5-0.9,0.6-1.2c0.3-1.6-0.3-2.9-1-3.4c-0.8-0.5-1.3-0.1-1.2-0.1c0,0.1,0.5-0.2,1.1,0.3
					c0.6,0.5,0.9,1.8,0.5,3.1c-0.3,1.3-2.3,2.1-4.1,1.4c-0.9-0.3-1.8-0.9-2.3-1.7c-0.5-0.8-0.6-2-0.3-3c0.6-2.2,2.7-4.2,5.2-5.3
					c2.6-1.2,5.6-1.8,8.8-2.8c3.1-0.9,6.3-1.8,9.6-2.9c3.3-1.1,6.6-2.3,9.6-4.1c3.1-1.8,5.9-4.1,7.9-7.1c2-2.9,3-6.6,2.6-10
					c-0.3-3.4-1.8-6.6-4.1-8.8c-0.5-0.6-1.2-1-1.8-1.5c-0.3-0.2-0.7-0.4-1-0.6c-0.3-0.2-0.6-0.3-1-0.5c-1.4-0.6-2.8-1-4.2-1.1
					c-2.7-0.3-5.2,0.2-7.3,0.8c-2.1,0.7-3.8,1.5-5.1,2.3c-1.3,0.8-2.3,1.5-3,2.1c-0.6,0.5-1,0.8-1,0.8L283.2,194.4z"/>
				<path class="st12" d="M230.8,192.5c0,0-0.3-0.3-1-0.8c-0.8-0.6-1.8-1.4-3.2-2.2c-1.4-0.8-3.3-1.7-5.5-2.4c-2.3-0.7-5-1.1-8-0.8
					c-1.6,0.2-3.1,0.6-4.7,1.3c-0.3,0.2-0.6,0.3-1,0.5c-0.4,0.2-0.8,0.5-1.2,0.8c-0.4,0.3-0.7,0.6-1.1,0.8c-0.4,0.3-0.7,0.6-1,0.9
					c-2.6,2.6-4.2,6.3-4.5,10.1c-0.1,1.9,0,3.9,0.6,5.8c0.3,1,0.6,1.9,1.1,2.8l0.2,0.3l0.1,0.2l0.1,0.1l0.3,0.6
					c0.2,0.4,0.6,0.9,0.8,1.3c2.3,3.2,5.4,5.7,8.7,7.5c3.3,1.8,6.8,3,10.1,4c3.4,1,6.6,1.8,9.7,2.7c3.3,0.9,6.3,1.4,8.6,2.5
					c2.2,0.9,3.9,2.7,4.4,4c0.1,0.3,0.2,0.6,0.2,0.9c0,0.3,0,0.7-0.1,0.8c-0.1,0.5-0.7,1.1-1.3,1.4c-1.2,0.7-2.8,0.3-3-0.3
					c-0.5-1-0.5-2.2-0.1-2.7c0.4-0.6,1-0.5,1-0.5c0,0-0.1,0-0.3-0.1c-0.2-0.1-0.6-0.1-1.1,0.1c-0.5,0.2-0.9,0.8-1.2,1.4
					c-0.3,0.7-0.5,1.4-0.3,2.4c0,0.4,0.3,1.2,0.7,1.7c0.4,0.5,0.9,0.8,1.5,1.1c1.1,0.6,2.5,0.8,3.9,0.5c1.4-0.3,2.9-1,4-2.5
					c0.6-0.9,0.9-1.7,1.1-2.6c0.2-0.9,0.1-1.9-0.1-2.9c-0.5-1.9-1.6-3.3-2.8-4.5c-1.2-1.2-2.7-2.2-4.3-2.9c-3.1-1.4-6.4-2-9.3-2.9
					c-3.2-0.9-6.4-1.7-9.6-2.7c-3.1-1-6.3-2.1-9-3.7c-2.7-1.5-5.2-3.5-6.9-5.8c-0.2-0.3-0.3-0.5-0.6-0.8l-0.3-0.5l-0.1-0.1
					c0.1,0.1,0,0,0,0l-0.1-0.2c-0.3-0.6-0.5-1.2-0.7-1.9c-0.4-1.3-0.5-2.6-0.4-3.9c0.2-2.6,1.2-5.1,2.8-6.7c0.4-0.4,0.9-0.8,1.2-1.1
					c0.2-0.1,0.4-0.3,0.6-0.4c0.3-0.2,0.6-0.3,0.9-0.5c0.9-0.4,2-0.8,3-0.9c2.1-0.3,4.2-0.1,6,0.4c1.8,0.5,3.3,1.2,4.5,1.8
					c1.2,0.6,2.1,1.2,2.7,1.6c0.6,0.5,1,0.8,1,0.8L230.8,192.5z"/>
				<path class="st13" d="M229.8,193.8c0,0-0.3-0.3-1-0.8c-0.7-0.5-1.7-1.2-3-2c-1.4-0.8-3.1-1.6-5.2-2.2c-2.1-0.6-4.6-1-7.3-0.7
					c-1.4,0.1-2.7,0.5-4.1,1.2c-0.3,0.2-0.6,0.3-1,0.5c-0.3,0.2-0.7,0.4-1,0.6c-0.6,0.5-1.3,0.9-1.8,1.5c-2.3,2.3-3.6,5.5-3.9,8.9
					c-0.3,3.4,0.7,7.1,2.8,9.9c2.1,2.9,5,5.2,8.1,6.9c3.1,1.7,6.4,2.9,9.7,3.9c3.3,1,6.5,1.8,9.6,2.7c3.2,0.9,6.3,1.4,8.8,2.6
					c2.5,1.1,4.7,3.1,5.3,5.2c0.3,1,0.2,2.2-0.2,3c-0.5,0.9-1.3,1.5-2.2,1.8c-1.7,0.7-3.8,0-4.1-1.4c-0.4-1.3-0.1-2.6,0.4-3.1
					c0.6-0.5,1.1-0.3,1.1-0.3c0,0.1-0.5-0.3-1.2,0.2c-0.7,0.5-1.2,1.8-0.9,3.4c0.1,0.4,0.3,0.9,0.6,1.2c0.3,0.3,0.7,0.6,1.2,0.8
					c0.9,0.4,2.1,0.5,3.2,0.2c1.1-0.3,2.3-1,3.1-2.1c0.8-1.2,1-2.7,0.6-4.2c-0.4-1.4-1.3-2.7-2.4-3.7c-1.1-1-2.4-1.9-3.8-2.5
					c-2.8-1.3-6-1.8-9.1-2.7c-3.1-0.9-6.4-1.7-9.6-2.7c-3.2-1-6.5-2.1-9.4-3.8c-2.9-1.6-5.6-3.8-7.5-6.4c-1.9-2.6-2.8-5.8-2.5-8.9
					c0.2-3,1.5-5.9,3.4-7.9c0.5-0.5,1-0.9,1.5-1.3l0.8-0.5c0.3-0.2,0.6-0.3,0.9-0.5c1.2-0.5,2.4-0.9,3.6-1.1c2.4-0.3,4.7,0,6.7,0.5
					c2,0.6,3.6,1.3,4.9,2c1.3,0.7,2.2,1.4,2.9,1.8c0.6,0.5,1,0.8,1,0.8L229.8,193.8z"/>
			</g>
			<path class="st12" d="M226.9,186.8c0.1-0.5,0.5-0.8,1-0.8l25.2-0.3l5.8-0.1l25.2-0.3c0.5,0,0.9,0.3,1,0.8
				c0.9,3.7,3.5,19-9.3,32.3c-14.6,15.2-15.9,17.8-14.3,30.5c1.6,12.6,7.8,16.5,7.8,16.5l-12.2,0.1l-0.3,0l-12.2,0.1
				c0,0,6.1-4,7.5-16.6c1.3-12.7-0.1-15.3-15-30.2C223.8,205.9,226.1,190.5,226.9,186.8z"/>
			<path class="st14" d="M237,279.5l39.8-0.4l-0.1-13.4c0-1.1-0.9-1.9-1.9-1.9l-36,0.4c-1.1,0-1.9,0.9-1.9,1.9L237,279.5z"/>
			<path class="st15" d="M232.5,282l48.9-0.5l0-3c0-1.1-0.9-1.9-1.9-1.9l-45.1,0.5c-1.1,0-1.9,0.9-1.9,1.9L232.5,282z"/>
			<path class="st13" d="M230.1,192.4c0-0.9,0.8-1.6,1.6-1.6l23.6-0.3l1.2,0l23.6-0.3c0.9,0,1.6,0.7,1.7,1.5c0,0.1,0,0.2,0,0.4
				c0.8,13.6-10.2,25.1-23.9,25.2l-1.2,0l-1.2,0l-1.2,0c-13.7,0.1-24.9-11.1-24.4-24.7C230.1,192.6,230.1,192.5,230.1,192.4z"/>
			<path class="st13" d="M231.5,187.2l49-0.5c0.8,0,1.4,0.6,1.4,1.4l0,0c0,0.8-0.6,1.4-1.4,1.4l-49,0.5c-0.8,0-1.4-0.6-1.4-1.4l0,0
				C230,187.8,230.7,187.2,231.5,187.2z"/>
		</g>
		<polygon class="st11" points="256.1,196.2 259.2,202.3 266,203.3 261.1,208.2 262.2,214.9 256.1,211.7 250,214.9 251.2,208.2 
			246.3,203.3 253.1,202.3 		"/>
	</g>
	<g>
		<path class="st16" d="M329.4,153.7c1,2.1,2.3,3.9,3.9,5.5c2-1.5,4-2.9,6-4.4c-2.9-1.4-4.9-4.7-4.6-7.9c-2.3,2-4.6,3.9-7,5.9"/>
		<g>
			<path class="st16" d="M100.3,240.6c1.9,4.2-1,9.9-5.6,10.7c1.4,2.1,2.7,4.2,4.1,6.3c5.6-2.3,9.5-8.1,9.4-14.1
				c-2.1,0-4.3-0.7-6-1.9"/>
			<path class="st17" d="M143.2,208.6c-0.7,3.2-3.9,5.6-7.1,5.3c0.7,0.8,1,2,0.7,3c2.2,0.2,4.5,0.2,6.7-0.5c2.1-0.7,4.1-2.2,4.8-4.4
				c-1.8-0.8-3.7-1.6-5.5-2.4"/>
			<path class="st18" d="M74.8,191c0.9,2.7,0.9,5.7,0.1,8.5c1.3,1.2,3.2,1.8,4.9,1.4c1.1-2.5,1.9-5.1,2.4-7.8
				c-2.1,0.3-4.3-0.2-6.2-1.3"/>
			<path class="st17" d="M169.1,158c2.4,2.1,4.1,4.9,4.9,8c1.8,0.5,3.6-1.1,3.9-2.9c0.3-1.8-0.7-3.6-1.8-5c-0.9-1.1-2-2-3.2-2.8
				c-0.5,1.7-2,3.2-3.7,3.7"/>
			<path class="st16" d="M112.4,143.9c0.8,1.9,1.6,3.9,1.4,5.9c-0.1,2-1.5,4.2-3.6,4.4c1.4,0.6,2.8,1.3,4.2,1.9c2-1.2,4-3,4.3-5.4
				c0.3-2.4-2.3-4.9-4.4-3.8"/>
			<path class="st18" d="M48.9,234c1.5,1.9,2.4,4.4,2.5,6.8c1.4,0,2.9,0.1,4.2-0.4c1.3-0.5,2.4-1.7,2.4-3.2c0-0.8-0.5-1.6-1-2.2
				c-1.9-2.3-5.4-3.2-8.2-2"/>
			<path class="st17" d="M58.6,136.5c0.7,1,1,2.3,0.8,3.5c0.9,0.7,2.3-0.1,2.7-1.2c0.4-1.1,0.1-2.3-0.2-3.3
				c-1.3,0.1-2.5,0.2-3.8,0.3"/>
			<path class="st17" d="M143.8,252.6c1.9,2.3,1.9,6,0.1,8.3c2.5,0,5.1,0.3,7.5,1.1c0.5-1.7,0.9-3.4,1.4-5.1c0.1-0.4,0.2-0.9,0-1.3
				c-0.2-0.4-0.6-0.5-1-0.6c-2.4-0.8-4.9-1.6-7.3-2.4"/>
			<path class="st16" d="M234.3,143.1c1,1.7,1.7,3.6,2,5.6c0.2,1.1-0.5,2.8-1.5,2.2c1.4-0.7,2.8,1,4.4,0.9c1.9-0.1,2.6-2.6,2.2-4.4
				c-0.3-1.8-1.2-3.8-0.5-5.5c-1.7,0.1-3.4,0.3-5.2,0.4"/>
			<path class="st17" d="M188.1,99.2c1.8,2.1,2.8,4.8,2.8,7.5c1.2-0.2,2.4-0.3,3.6-0.5c1-2,0.9-4.6-0.6-6.2
				c-1.5-1.6-4.5-1.6-5.8,0.2"/>
			<path class="st16" d="M123.7,105.5c2.1,1,3.7,3.2,3.9,5.5c1.4-0.6,2.7-1.1,4.1-1.7c-0.5-2.8-2.1-5.3-4.4-6.9c-1,0.7-2,1.4-3,2.1"
				/>
			<path class="st18" d="M90.8,86.4c2.1,1.7,3.7,3.9,4.7,6.5c1.5-0.7,3-1.5,4.3-2.6c-1.9-2.1-3.8-4.3-5.4-6.7
				c-1.6,0.7-3.2,1.6-4.6,2.6"/>
			<path class="st17" d="M259.2,157.9c1.6,2,2.5,4.6,2.3,7.1c1.7-0.5,3.5-1,5.2-1.5c-0.3-2.4-0.6-4.8-0.9-7.1
				c-1.9,0.9-3.9,1.7-5.8,2.6"/>
			<path class="st16" d="M200.2,248.6c1.1,2.5-0.5,5.9-3.1,6.6c1.6,0.4,3.1,1.1,4.4,2.1c1.4-2.4,2.9-4.8,4.3-7.2
				c-1.6,0-3.2-0.1-4.9-0.1"/>
			<path class="st18" d="M241.9,93.7c0.7,2.7-1,5.8-3.7,6.7c-0.3,1.2,0.6,2.5,1.7,2.9c1.2,0.5,2.5,0.3,3.6-0.2
				c2.3-0.9,4.2-3.1,4.2-5.6c0-2.5-2.6-4.8-4.9-4"/>
			<path class="st17" d="M301.5,125.7c3.6,1.6,6,5.5,5.9,9.4c2.1-0.5,4.1-1.3,6-2.3c-0.7-3.8-2.3-7.5-4.5-10.7c-2,1.9-4.8,3-7.6,3"
				/>
			<path class="st18" d="M331.9,211.7c-2.4,2-2.8,6-0.8,8.4c2,2.4,6,2.8,8.4,0.7c-2.1-1.8-3-4.8-2.5-7.5c-2.2-0.4-4.4-0.8-6.6-1.2"
				/>
			<path class="st16" d="M333.8,254.5c2.3,3.3,1.9,8.2-0.7,11.2c2.5,0.2,5,0.4,7.5,0.6c0.2-2.6,0.2-5.2,0-7.7
				c-0.1-1.1-0.4-2.4-1.4-2.8c-1.7-0.7-4.4,1.6-5.2,0"/>
			<path class="st17" d="M366.4,182.9c-1.5,3.6-1.6,7.7-0.3,11.4c2.2-0.5,4.4-1,6.5-1.5c-2.5-3.2-2-8.3,1.1-11
				c-2.4,1.7-5.4,2.6-8.4,2.4"/>
			<path class="st18" d="M369.7,133.2c-0.8,2.1,0,4.8,1.8,6.1c1.9,1.3,4.6,1.1,6.3-0.4c-2.5-3-3.3-7.2-2-10.9
				c-1.2,2.1-3.5,3.5-5.8,3.8"/>
			<path class="st16" d="M290.1,73c3.5,1.7,6.1,5.2,6.7,9c2.8,0.8,5.5-2.2,5.5-5.1c0.1-2.9-1.6-5.5-3.2-7.9
				c-3.9,1.7-7.7,3.5-11.4,5.4"/>
			<path class="st16" d="M375.3,221.8c2.7,0.9,4.8,3.2,5.3,6c2,0.1,4-1.5,4.5-3.5c0.5-2-0.7-4.2-2.5-5c-2.7-1.2-5.7,0.5-7.9,2.5"/>
			<path class="st18" d="M406.7,175.6c2.6,0.3,5,2.1,6,4.6c0.9-2.4,1.6-4.9,1.9-7.4c-2.2-1.2-4.4-2.4-6.6-3.5
				c0.5,2.7-0.6,5.6-2.6,7.3"/>
			<path class="st18" d="M378.6,95.7c-0.7,3-0.8,6.2-0.5,9.3c2.2,0,4.3,0,6.5,0c-0.7-3.5,0.5-7.3,3.1-9.8c-3,0.8-6.1,1.5-9.1,2.3"/>
			<path class="st16" d="M409.9,228.4c-0.1,2.5-1.2,5-2.9,6.8c1.1-0.5,2.6,0,3.2,1.1c2.2-1.5,3.8-3.9,4.4-6.5
				c-1.3,0.1-2.7-0.1-4-0.5"/>
			<path class="st18" d="M420.4,127.1c0.2,4.1,3.5,8,7.6,8.7c-0.6-1.7,0.2-3.8,1.7-4.8c-2.3-1.8-3.4-5-2.8-7.8
				c-2.6,1.6-5.4,2.9-8.3,3.9"/>
			<path class="st16" d="M444.5,194.3c-1.2,3.8,0,8.2,2.9,10.9c0.5,0.4,1,0.8,1.7,0.9c1.9,0.3,3.8-2,5.5-1.1
				c-2.5-3.6-2.7-8.6-0.6-12.4c-2.3,1.6-5.2,2.3-8,2"/>
			<path class="st17" d="M382.7,258.4c0.1,3.2,1.8,6.4,4.4,8.3c1.1-1.5,3.1-2.3,4.9-2.1c-1.2-1.3-2.4-2.6-3-4.2
				c-0.6-1.6-0.5-3.6,0.7-4.8c-2.7,0.6-5.3,1.5-7.8,2.5"/>
			<path class="st17" d="M409.2,281.1c0.9,2.6-0.4,5.7-2.9,6.9c1.8,1.5,4.9,1.3,6.2-0.7c1.3-2-0.1-5.2-2.5-5.2"/>
			<path class="st18" d="M100.1,280.4c-0.6,2.7,0.1,5.8,2,7.8c1.6-0.6,3.4-0.8,5.1-0.6c0-2.3,0.1-4.7,0.1-7
				c-2.7,1.3-5.7,1.9-8.7,1.8"/>
		</g>
	</g>
</g>
<g id="DESIGNED_BY_FREEPIK">
</g>
</svg>
