<svg xmlns="http://www.w3.org/2000/svg" viewBox="0 0 334.09 87.23"><defs><style>.cls-1{fill:#ecf4e1;}</style></defs><title>white_logo_2</title><g id="Réteg_2" data-name="Réteg 2"><g id="Réteg_1" data-name="Réteg 1"><path class="cls-1" d="M44.28,52.21a22.56,22.56,0,0,1,10.81,6.73l32.15-4.23A43.65,43.65,0,0,0,47.66,0h0L40.86.12,0,.88H0L4.82,15.59l-3.53,25,.09,2.79.1,2.83c0,.11,0,.22,0,.32A43.62,43.62,0,0,0,82,66.84L52.48,70.72c-3.55,1.43-8.61,1.53-13.83-.06C30,68,24.23,61.75,25.78,56.65S35.61,49.57,44.28,52.21Zm6.87-28.6a11.69,11.69,0,1,1-14.6-7.75A11.69,11.69,0,0,1,51.15,23.61Z"/><path class="cls-1" d="M112.41,31.9V47.73H101.68V1.52h17.65q8.22,0,13,4.19a13.87,13.87,0,0,1,4.83,11,13.83,13.83,0,0,1-4.83,11q-4.82,4.17-13,4.18Zm0-8.26h6.92a7,7,0,0,0,5.33-1.92,6.81,6.81,0,0,0,1.84-4.93,7.16,7.16,0,0,0-1.82-5,7,7,0,0,0-5.35-2h-6.92Z"/><path class="cls-1" d="M181.54,28.79a19.29,19.29,0,0,1-5.42,14.07Q170.72,48.4,162,48.4t-14.25-5.54a19.2,19.2,0,0,1-5.46-14.07V20.47a19.26,19.26,0,0,1,5.45-14.06Q153.17.86,161.92.86t14.16,5.55a19.23,19.23,0,0,1,5.46,14.06Zm-10.7-8.38a13.43,13.43,0,0,0-2.33-8.13,8.51,8.51,0,0,0-13.24,0,13.48,13.48,0,0,0-2.3,8.14v8.38A13.48,13.48,0,0,0,155.3,37,7.8,7.8,0,0,0,162,40.15,7.61,7.61,0,0,0,168.52,37a13.48,13.48,0,0,0,2.32-8.18Z"/><path class="cls-1" d="M198.8,30V47.73H188.07V1.52h16.09q8,0,12.73,3.72a12.24,12.24,0,0,1,4.7,10.15,10.11,10.11,0,0,1-1.89,6.16,13.47,13.47,0,0,1-5.57,4.19,10.32,10.32,0,0,1,6.11,4,12.44,12.44,0,0,1,1.86,7v2.92a18.45,18.45,0,0,0,.54,4.13,5.48,5.48,0,0,0,1.87,3.3v.63H213.43a5.24,5.24,0,0,1-1.65-3.46,31.18,31.18,0,0,1-.38-4.66V36.82a6.83,6.83,0,0,0-1.74-5.05A7,7,0,0,0,204.55,30Zm0-8.25h5.43a7.39,7.39,0,0,0,5-1.47,5.31,5.31,0,0,0,1.71-4.24,6.1,6.1,0,0,0-1.76-4.56,6.8,6.8,0,0,0-5-1.73H198.8Z"/><path class="cls-1" d="M260.09,9.77H247.87v38H237.14v-38h-12V1.52h34.95Z"/><path class="cls-1" d="M285.16,38.75H271.42l-2.67,9h-11.3L272.53,1.52h5.74v0l0,0h5.74l15.11,46.21h-11.3ZM273.89,30.5h8.8l-4.32-14.35h-.19Z"/><path class="cls-1" d="M313.19,39.48H333v8.25H302.46V1.52h10.73Z"/><path class="cls-1" d="M120.25,80.34a10.6,10.6,0,0,1-3.76,2.76,14.71,14.71,0,0,1-6.24,1.14,10.55,10.55,0,0,1-7.73-2.92,10.14,10.14,0,0,1-3-7.57V68.4a10.32,10.32,0,0,1,2.89-7.56,10,10,0,0,1,7.44-2.93q4.91,0,7.41,2.19a7.28,7.28,0,0,1,2.42,6l0,.11H114.1a3.6,3.6,0,0,0-1-2.8,4.36,4.36,0,0,0-3-.91,4,4,0,0,0-3.34,1.63,6.73,6.73,0,0,0-1.27,4.26v5.38A6.8,6.8,0,0,0,106.73,78a4.18,4.18,0,0,0,3.52,1.63,10.28,10.28,0,0,0,2.58-.26,4.08,4.08,0,0,0,1.48-.71V74.13h-4.53V70.19h10.47Z"/><path class="cls-1" d="M138.89,72.92h-9V79.3h10.81v4.57H123.93V58.28H140.7v4.57H129.87v5.5h9Z"/><path class="cls-1" d="M165.39,83.87h-5.92l-9.37-16.1-.1,0V83.87h-5.95V58.28H150l9.37,16.08.1,0v-16h5.92Z"/><path class="cls-1" d="M184.5,72.92h-9V79.3h10.81v4.57H169.54V58.28h16.77v4.57H175.48v5.5h9Z"/><path class="cls-1" d="M195.6,74.06v9.81h-5.94V58.28h8.91a11.05,11.05,0,0,1,7.05,2,6.77,6.77,0,0,1,2.6,5.63,5.59,5.59,0,0,1-1,3.41,7.46,7.46,0,0,1-3.09,2.32,5.76,5.76,0,0,1,3.39,2.22,6.94,6.94,0,0,1,1,3.88v1.62a10.08,10.08,0,0,0,.29,2.28,3,3,0,0,0,1,1.83v.35h-6.13a2.86,2.86,0,0,1-.92-1.92,17,17,0,0,1-.21-2.58V77.82a3.4,3.4,0,0,0-3.8-3.76Zm0-4.57h3a4.06,4.06,0,0,0,2.74-.82,2.92,2.92,0,0,0,1-2.34,3.31,3.31,0,0,0-1-2.52,3.74,3.74,0,0,0-2.75-1h-3Z"/><path class="cls-1" d="M227,78.9h-7.62l-1.47,5H211.6L220,58.28h6.38l8.37,25.59h-6.26Zm-6.24-4.57h4.86l-2.39-8h-.1Z"/><path class="cls-1" d="M252.09,62.85h-6.77v21h-5.94v-21h-6.64V58.28h19.35Z"/><path class="cls-1" d="M260.71,83.87h-5.92V58.28h5.92Z"/><path class="cls-1" d="M286.21,73.38a10.67,10.67,0,0,1-3,7.79,10.45,10.45,0,0,1-7.83,3.07,10.45,10.45,0,0,1-10.92-10.86V68.77a10.68,10.68,0,0,1,3-7.79,11.58,11.58,0,0,1,15.71,0,10.68,10.68,0,0,1,3,7.79Zm-5.93-4.64a7.4,7.4,0,0,0-1.29-4.5,4.23,4.23,0,0,0-3.64-1.76,4.28,4.28,0,0,0-3.69,1.75,7.46,7.46,0,0,0-1.27,4.51v4.64a7.46,7.46,0,0,0,1.29,4.53,4.31,4.31,0,0,0,3.7,1.76A4.22,4.22,0,0,0,279,77.91a7.45,7.45,0,0,0,1.28-4.53Z"/><path class="cls-1" d="M311.05,83.87h-5.93l-9.37-16.1-.1,0V83.87h-5.94V58.28h5.94L305,74.36l.1,0v-16h5.93Z"/><path class="cls-1" d="M328.15,77.09a2.56,2.56,0,0,0-.9-2.11A11.83,11.83,0,0,0,324,73.43a24.5,24.5,0,0,1-7.08-3.3,5.92,5.92,0,0,1-2.31-5,6.2,6.2,0,0,1,2.69-5.21,13,13,0,0,1,13.89.07,6.63,6.63,0,0,1,2.58,5.77l0,.11H328a3.24,3.24,0,0,0-1-2.63,4.56,4.56,0,0,0-3-.82,3.8,3.8,0,0,0-2.55.79,2.47,2.47,0,0,0-.93,1.95,2.09,2.09,0,0,0,.95,1.8,18.12,18.12,0,0,0,3.58,1.7,18.92,18.92,0,0,1,6.73,3.22,6.38,6.38,0,0,1,2.29,5.2,6.15,6.15,0,0,1-2.64,5.28,11.69,11.69,0,0,1-7,1.91,12.75,12.75,0,0,1-7.36-2q-3-2-2.93-6.44l0-.11H320a4,4,0,0,0,1.1,3.18,5.12,5.12,0,0,0,3.37.94,4.36,4.36,0,0,0,2.77-.74A2.37,2.37,0,0,0,328.15,77.09Z"/></g></g></svg>