<svg xmlns="http://www.w3.org/2000/svg" viewBox="0 0 88.69 87.23"><defs><style>.cls-1{fill:#ecf4e1;}</style></defs><title>white_single_logo_3</title><g id="Réteg_2" data-name="Réteg 2"><g id="Réteg_1" data-name="Réteg 1"><path class="cls-1" d="M44.28,52.21a22.56,22.56,0,0,1,10.81,6.73l32.15-4.23A43.65,43.65,0,0,0,47.66,0h0L40.86.12,0,.88H0L4.82,15.59l-3.53,25,.09,2.79.1,2.83c0,.11,0,.22,0,.32A43.62,43.62,0,0,0,82,66.84L52.48,70.72c-3.55,1.43-8.61,1.53-13.83-.06C30,68,24.23,61.75,25.78,56.65S35.61,49.57,44.28,52.21Zm6.87-28.6a11.69,11.69,0,1,1-14.6-7.75A11.69,11.69,0,0,1,51.15,23.61Z"/></g></g></svg>